<?xml version="1.0" encoding="utf-8"?>
<!-- Generator: Adobe Illustrator 22.1.0, SVG Export Plug-In . SVG Version: 6.00 Build 0)  -->
<svg version="1.1" id="Capa_1" xmlns="http://www.w3.org/2000/svg" xmlns:xlink="http://www.w3.org/1999/xlink" x="0px" y="0px"
	 viewBox="0 0 400 400" style="enable-background:new 0 0 400 400;" xml:space="preserve">
<style type="text/css">
	.st0{fill:url(#SVGID_1_);}
	.st1{fill:none;stroke:url(#SVGID_2_);stroke-width:21.2627;stroke-miterlimit:10;}
</style>
<g>
	<linearGradient id="SVGID_1_" gradientUnits="userSpaceOnUse" x1="65.3141" y1="183.8006" x2="334.6859" y2="183.8006">
		<stop  offset="0" style="stop-color:#0081C6"/>
		<stop  offset="5.124450e-02" style="stop-color:#0979C2"/>
		<stop  offset="0.3579" style="stop-color:#3853B0"/>
		<stop  offset="0.6293" style="stop-color:#5A37A2"/>
		<stop  offset="0.8526" style="stop-color:#6F269A"/>
		<stop  offset="1" style="stop-color:#762097"/>
	</linearGradient>
	<path class="st0" d="M334.6,239.7c-0.2-5,0.2-12.9-1.3-27.3c-1.5-14.5-10.2-35.5-10.2-35.5c-10.4-23.5-27.2-43.4-48.8-57.6
		c-22.2-14.7-48-22.4-74.5-22.4c-17.3,0-34.3,3.3-50.5,9.9c-48.9,19.8-81.8,66.7-83.9,119.5c-0.1,2.5-0.1,36-0.1,38.9l0.1,3.8l0,1.9
		h1.9h13.4h7.7h37.4h3.7h135.1h4h41.2h7.7h15.1h1.9l0-1.9l0.1-3.8C334.7,263.4,334.7,242.2,334.6,239.7z M268.1,129.1
		c11.3,7.5,21.2,16.7,29.4,27.3l-2.8,1.8c-0.2-0.2-0.3-0.4-0.5-0.6l-0.5-0.6l-0.5-0.6c-0.5-0.6-0.9-1.2-1.4-1.7
		c-0.4-0.5-0.9-1-1.3-1.5l-0.5-0.6l-0.5-0.6c-0.5-0.6-1-1.1-1.5-1.7c-0.4-0.5-0.9-0.9-1.3-1.4l-0.6-0.6l-0.5-0.6
		c-0.5-0.5-1-1.1-1.5-1.6c-0.5-0.5-0.9-0.9-1.4-1.4l-0.6-0.6l-0.6-0.6c-0.5-0.5-1-1-1.6-1.5c-0.5-0.4-1-0.9-1.5-1.3l-0.6-0.5
		l-0.6-0.5c-0.5-0.5-1.1-0.9-1.6-1.4c-0.5-0.4-1-0.8-1.6-1.2l-0.7-0.5l-0.6-0.5c-0.6-0.4-1.1-0.9-1.7-1.3c-0.5-0.4-1.1-0.8-1.6-1.2
		l-0.7-0.5l-0.7-0.5c-0.4-0.3-0.9-0.6-1.3-0.9L268.1,129.1z M209.6,108.8c13.9,1.1,27.5,4.6,40.4,10.3l-1.4,2.5l-0.1-0.1l-0.8-0.4
		c-0.6-0.3-1.2-0.6-1.8-0.8c-0.7-0.3-1.3-0.5-2-0.8l-0.8-0.3l-0.8-0.3c-0.6-0.2-1.2-0.5-1.8-0.7c-0.7-0.3-1.4-0.5-2.1-0.7l-0.8-0.3
		l-0.9-0.3c-0.6-0.2-1.2-0.4-1.8-0.6c-0.7-0.2-1.4-0.4-2.2-0.6l-0.9-0.2l-0.9-0.3c-0.6-0.2-1.2-0.3-1.8-0.5
		c-0.8-0.2-1.5-0.4-2.3-0.5l-0.9-0.2l-0.9-0.2c-0.6-0.1-1.1-0.3-1.7-0.4c-0.8-0.2-1.6-0.3-2.5-0.4l-0.9-0.2
		c-0.3-0.1-0.6-0.1-0.9-0.2c-0.6-0.1-1.1-0.2-1.7-0.3c-0.9-0.1-1.8-0.2-2.7-0.4l-0.8-0.1c-0.3,0-0.6-0.1-0.9-0.1
		c-0.5-0.1-1-0.1-1.5-0.2c-0.6-0.1-1.2-0.1-1.8-0.2V108.8z M153.7,117.5c11.2-4.5,22.9-7.4,34.9-8.5v2.5c-0.6,0-1.2,0.1-1.8,0.2
		c-0.5,0.1-1,0.1-1.5,0.2c-0.3,0-0.6,0.1-0.9,0.1l-0.8,0.1c-0.9,0.1-1.8,0.2-2.8,0.4c-0.6,0.1-1.1,0.2-1.7,0.3
		c-0.3,0.1-0.6,0.1-0.9,0.2l-0.9,0.2c-0.8,0.1-1.6,0.3-2.4,0.4c-0.6,0.1-1.1,0.3-1.7,0.4l-0.9,0.2l-0.9,0.2
		c-0.8,0.2-1.6,0.3-2.3,0.5c-0.6,0.2-1.2,0.3-1.8,0.5l-0.9,0.3l-0.9,0.2c-0.7,0.2-1.5,0.4-2.2,0.6c-0.6,0.2-1.2,0.4-1.8,0.6
		l-0.9,0.3l-0.8,0.3c-0.7,0.2-1.4,0.5-2.1,0.7c-0.6,0.2-1.2,0.5-1.8,0.7l-0.8,0.3l-0.8,0.3c-0.7,0.3-1.3,0.5-2,0.8
		c-0.6,0.3-1.2,0.5-1.8,0.8l-0.8,0.4l0,0l-1.1-1.9C150.5,118.8,152.1,118.1,153.7,117.5z M131,129.7l1,1.8c-0.6,0.4-1.1,0.8-1.7,1.2
		l-0.7,0.5l-0.7,0.5c-0.5,0.4-1.1,0.8-1.6,1.2c-0.6,0.4-1.1,0.9-1.7,1.3l-0.7,0.5l-0.7,0.5c-0.5,0.4-1,0.8-1.6,1.2
		c-0.6,0.5-1.1,0.9-1.6,1.4l-0.6,0.5l-0.6,0.5c-0.5,0.4-1,0.9-1.5,1.3c-0.5,0.5-1.1,1-1.6,1.5l-0.6,0.6l-0.6,0.6
		c-0.5,0.5-1,0.9-1.4,1.4c-0.5,0.5-1,1.1-1.5,1.6l-0.5,0.6l-0.6,0.6c-0.5,0.5-0.9,0.9-1.4,1.4c-0.5,0.5-1,1.1-1.5,1.7l-0.5,0.6
		l-0.5,0.6c-0.4,0.5-0.9,1-1.3,1.5c-0.5,0.6-0.9,1.2-1.4,1.8l-0.5,0.6l-0.5,0.6c-0.2,0.2-0.4,0.5-0.5,0.7l-1.5-1
		C110.2,146.5,119.9,137.2,131,129.7z M78.8,227l0,0.8c0,0.5,0,11-0.1,23.7c0,3.2,0,6,0,7.8h-1.7c0-1.2,0-3,0-5
		c0-8.2,0.1-22.4,0.2-27.8l1.7,0.2C78.8,226.7,78.8,226.8,78.8,227z M89.5,181.6l-0.3,0.7c-0.3,0.6-0.6,1.3-0.9,1.9
		c-0.3,0.7-0.6,1.4-0.9,2.1l-0.3,0.7l-0.3,0.7c-0.3,0.6-0.5,1.3-0.8,1.9c-0.3,0.7-0.5,1.4-0.8,2.2l-0.2,0.7l-0.2,0.7
		c-0.2,0.7-0.5,1.3-0.7,2c-0.2,0.7-0.4,1.5-0.7,2.2l-0.2,0.7l-0.2,0.7c-0.2,0.7-0.4,1.4-0.6,2.1c-0.2,0.8-0.4,1.5-0.6,2.3l-0.2,0.7
		l-0.2,0.7c-0.2,0.7-0.3,1.4-0.5,2.1l-1.7-0.2c2.3-10.8,6.1-21.3,11.2-31.2l1.4,0.9l-0.2,0.3l-0.3,0.7c-0.3,0.6-0.6,1.2-0.9,1.8
		c-0.3,0.7-0.7,1.4-1,2.1L89.5,181.6z M194,259.2h-58.6c0-1.7,0-5.1,0-9.9c0-8.7,0.1-21.7,0.1-22.6l0-0.1l0-0.6
		c0.1-1.2,0.2-2.4,0.4-3.5l0-0.2c0.1-0.8,0.2-1.5,0.4-2.2l0.1-0.3c0-0.2,0.1-0.3,0.1-0.5c0.1-0.7,0.3-1.3,0.4-2l0.1-0.3
		c0.1-0.2,0.1-0.5,0.2-0.7c0.2-0.6,0.3-1.3,0.5-1.9c0.1-0.3,0.2-0.7,0.3-1c0.2-0.6,0.4-1.3,0.6-1.9c0.1-0.3,0.2-0.6,0.3-0.9
		c0.2-0.7,0.5-1.3,0.7-2l0.2-0.5l0.1-0.1c0.3-0.7,0.6-1.5,0.9-2.2l0-0.1l0.1-0.1c8.6-19.2,26-32.9,46.7-36.8l-0.1-1c0,0,0,0,0.1,0
		c0,0,0,0,0,0l0.2,1c0.9-0.2,1.7-0.3,2.6-0.4l0.5-0.1l0.3,0c0.7-0.1,1.4-0.2,2.1-0.2c0.3,0,0.6,0,0.9-0.1V259.2z M204.3,259.2v-91.3
		c0.3,0,0.6,0,0.9,0.1c0.7,0.1,1.4,0.2,2.1,0.2l0.3,0l0.5,0.1c0.8,0.1,1.7,0.3,2.5,0.4l0,0l0.1,0c20.7,3.9,38.1,17.6,46.7,36.7
		l0.1,0.2l0.1,0.2c0.3,0.7,0.6,1.4,0.9,2.1c0.1,0.3,0.2,0.5,0.3,0.7c0.2,0.6,0.5,1.3,0.7,1.9c0.1,0.3,0.2,0.7,0.3,1
		c0.2,0.6,0.4,1.2,0.6,1.8c0.1,0.4,0.2,0.8,0.3,1.2c0.2,0.6,0.3,1.1,0.5,1.7c0.1,0.3,0.2,0.7,0.2,1l0,0.2c0.1,0.6,0.3,1.2,0.4,1.8
		c0,0.2,0.1,0.5,0.1,0.7l0.1,0.4c0.1,0.7,0.2,1.3,0.3,2l0,0.2l0,0.2c0.1,1.1,0.3,2.2,0.4,3.3c0,0.3,0,0.6,0.1,0.9
		c0,0.8,0.1,13,0.1,21.9c0,5.2,0,8.7,0,10.5H204.3z M274.5,259.2c0-1.5,0-3.8,0-6.5c-0.1-16.6-0.1-25.7-0.2-26.5
		c-0.1-1.6-0.3-3.2-0.5-5l0-0.1c0-0.1,0-0.2,0-0.3c0-0.1,0-0.2-0.1-0.4l0-0.2c-0.1-0.8-0.2-1.5-0.4-2.3c-0.1-0.4-0.2-0.8-0.2-1.3
		c-0.2-0.7-0.3-1.5-0.5-2.2c-0.1-0.4-0.2-0.7-0.3-1.1l0-0.1c-0.2-0.8-0.4-1.5-0.6-2.3c-0.1-0.2-0.1-0.5-0.2-0.7l-0.1-0.3
		c-0.2-0.8-0.5-1.6-0.8-2.4l-0.1-0.3l-0.1-0.2c-8.9-25.7-30.9-44.6-57.6-49.6c-1.2-0.2-2.2-0.4-3.2-0.5c-0.2,0-0.3,0-0.5-0.1l-0.3,0
		c-0.9-0.1-1.7-0.2-2.6-0.3c-0.4,0-0.8-0.1-1.2-0.1l-0.5,0l-0.5,0c-0.4,0-0.9-0.1-1.3-0.1c-1.2-0.1-2.5-0.1-3.6-0.1
		c-1.2,0-2.4,0-3.6,0.1c-0.5,0-0.9,0.1-1.4,0.1l-0.5,0l-0.5,0c-0.4,0-0.8,0.1-1.1,0.1c-0.9,0.1-1.7,0.2-2.6,0.3l-0.3,0
		c-0.2,0-0.3,0-0.5,0.1c-1,0.1-2,0.3-3.2,0.5c-26.7,4.9-48.8,24-57.7,49.7l0,0.1l-0.1,0.2c-0.3,0.9-0.6,1.7-0.8,2.6l-0.1,0.3
		c-0.1,0.2-0.1,0.4-0.2,0.5c-0.2,0.8-0.4,1.6-0.6,2.4l-0.1,0.2c-0.1,0.3-0.1,0.5-0.2,0.8c-0.2,0.8-0.4,1.6-0.5,2.4
		c-0.1,0.4-0.1,0.7-0.2,1.1c-0.2,0.8-0.3,1.6-0.4,2.4l0,0.2c0,0.1,0,0.2-0.1,0.3c0,0.1,0,0.2,0,0.3c-0.3,2.3-0.5,18.4-0.7,35.5
		c0,1.1,0,2,0,2.8H90.3c0-1.9,0-5.1,0-8.6c0-8.8,0-22,0-22.6l0-0.6c0-0.7,0-1.4,0.1-2.1c0-0.8,0.1-1.5,0.2-2.3l0-0.6l0.1-0.6
		c0.1-0.7,0.1-1.4,0.2-2c0.1-0.8,0.2-1.5,0.3-2.3l0.1-0.5l0.1-0.6c0.1-0.7,0.2-1.3,0.3-2c0.1-0.7,0.3-1.5,0.4-2.2l0.1-0.6l0.1-0.7
		c0.1-0.6,0.2-1.2,0.4-1.9c0.2-0.7,0.3-1.5,0.5-2.2l0.1-0.6l0.2-0.7c0.1-0.6,0.3-1.2,0.4-1.8c0.2-0.8,0.4-1.5,0.6-2.3l0.1-0.5
		l0.2-0.7c0.2-0.6,0.3-1.1,0.5-1.7c0.2-0.7,0.5-1.5,0.7-2.2l0.2-0.5l0.2-0.7c0.2-0.5,0.4-1.1,0.6-1.6c0.3-0.7,0.6-1.5,0.9-2.2
		l0.2-0.5l0.3-0.7c0.2-0.5,0.4-1,0.6-1.5c0.3-0.7,0.6-1.4,1-2.1l0.2-0.5l0.3-0.7c0.2-0.5,0.4-1,0.7-1.4c0.4-0.7,0.7-1.4,1.1-2.1
		l0.3-0.5l0.3-0.7c0.2-0.5,0.5-0.9,0.7-1.4c0.4-0.7,0.8-1.4,1.2-2.1l0.3-0.5l0.4-0.6c0.3-0.4,0.5-0.9,0.8-1.3c0.4-0.7,0.9-1.4,1.3-2
		l0.3-0.5l0.4-0.6c0.3-0.4,0.5-0.8,0.8-1.2c0.5-0.7,0.9-1.3,1.4-2l0.3-0.5l0.4-0.6c0.3-0.4,0.6-0.8,0.9-1.2c0.5-0.6,1-1.3,1.5-1.9
		l0.4-0.5l0.5-0.6c0.3-0.4,0.6-0.7,0.9-1.1c0.5-0.6,1.1-1.2,1.6-1.8l0.4-0.4l0.5-0.6c0.3-0.4,0.6-0.7,0.9-1.1
		c0.6-0.6,1.1-1.2,1.7-1.8l0.4-0.4l0.5-0.6c0.3-0.3,0.6-0.7,1-1c0.6-0.6,1.2-1.1,1.8-1.7l0.4-0.4l0.6-0.5c0.3-0.3,0.7-0.6,1-0.9
		c0.6-0.5,1.2-1.1,1.9-1.6l0.5-0.4l0.6-0.5c0.3-0.3,0.7-0.6,1-0.9c0.6-0.5,1.3-1,1.9-1.5l0.5-0.4l0.6-0.5c0.4-0.3,0.7-0.6,1.1-0.8
		c0.7-0.5,1.3-1,2-1.4l0.5-0.4l0.7-0.5c0.4-0.3,0.7-0.5,1.1-0.8c0.7-0.5,1.4-0.9,2-1.3l0.6-0.4l0.7-0.4c0.4-0.2,0.7-0.5,1.1-0.7
		c0.7-0.4,1.4-0.8,2.1-1.2l0.6-0.3l0.7-0.4c0.4-0.2,0.8-0.4,1.2-0.7c0.7-0.4,1.4-0.7,2.1-1.1l0.6-0.3l0.7-0.4
		c0.4-0.2,0.8-0.4,1.2-0.6c0.7-0.3,1.4-0.7,2.2-1l0.7-0.3l0.8-0.3c0.4-0.2,0.8-0.4,1.2-0.6c0.7-0.3,1.5-0.6,2.2-0.9l0.7-0.3l0.8-0.3
		c0.4-0.2,0.8-0.3,1.2-0.5c0.7-0.3,1.5-0.5,2.2-0.8l0.7-0.2l0.8-0.3c0.4-0.1,0.9-0.3,1.3-0.4c0.7-0.2,1.5-0.4,2.2-0.6l0.8-0.2
		l0.8-0.2c0.4-0.1,0.9-0.3,1.3-0.4c0.8-0.2,1.6-0.4,2.3-0.5l0.8-0.2c0.3-0.1,0.6-0.1,0.8-0.2c0.4-0.1,0.9-0.2,1.3-0.3
		c0.8-0.2,1.6-0.3,2.4-0.4l0.8-0.1c0.3,0,0.6-0.1,0.9-0.2c0.4-0.1,0.8-0.2,1.3-0.2c0.9-0.1,1.8-0.2,2.6-0.3l0.7-0.1
		c0.3,0,0.6-0.1,0.8-0.1c0.4-0.1,0.8-0.1,1.2-0.1c1.1-0.1,2.3-0.2,3.5-0.3l0.4,0c0.3,0,0.5,0,0.8-0.1c0.3,0,0.6-0.1,0.9-0.1
		c1.9-0.1,3.7-0.1,5.6-0.1c1.8,0,3.7,0,5.6,0.1c0.3,0,0.6,0,0.9,0.1c0.3,0,0.5,0,0.8,0.1l0.4,0c1.1,0.1,2.3,0.2,3.4,0.3
		c0.4,0,0.8,0.1,1.2,0.2c0.3,0,0.6,0.1,0.9,0.1l0.7,0.1c0.9,0.1,1.8,0.2,2.6,0.3c0.4,0.1,0.9,0.1,1.3,0.2c0.3,0.1,0.6,0.1,0.9,0.2
		l0.8,0.1c0.8,0.1,1.6,0.3,2.4,0.4c0.4,0.1,0.9,0.2,1.3,0.3c0.3,0.1,0.6,0.1,0.8,0.2l0.8,0.2c0.8,0.2,1.6,0.3,2.3,0.5
		c0.4,0.1,0.9,0.2,1.3,0.4l0.8,0.2l0.7,0.2c0.8,0.2,1.5,0.4,2.3,0.6c0.4,0.1,0.9,0.3,1.3,0.4l0.8,0.3l0.7,0.2
		c0.7,0.2,1.5,0.5,2.2,0.8c0.4,0.2,0.8,0.3,1.3,0.5l0.8,0.3l0.7,0.3c0.7,0.3,1.5,0.6,2.2,0.9c0.4,0.2,0.8,0.4,1.2,0.6l0.8,0.3
		l0.7,0.3c0.7,0.3,1.4,0.6,2.1,1c0.4,0.2,0.8,0.4,1.2,0.6l0.7,0.4l0.6,0.3c0.7,0.4,1.4,0.7,2.1,1.1c0.4,0.2,0.8,0.4,1.2,0.7l0.7,0.4
		l0.6,0.3c0.7,0.4,1.4,0.8,2.1,1.2c0.4,0.2,0.7,0.5,1.1,0.7l0.7,0.4l0.6,0.4c0.7,0.4,1.4,0.9,2.1,1.3c0.4,0.2,0.7,0.5,1.1,0.8
		l0.7,0.5l0.5,0.4c0.7,0.5,1.3,0.9,2,1.4c0.4,0.3,0.7,0.6,1.1,0.8l0.6,0.5l0.5,0.4c0.6,0.5,1.3,1,1.9,1.5c0.3,0.3,0.7,0.6,1,0.9
		l0.6,0.5l0.5,0.4c0.6,0.5,1.2,1,1.8,1.6c0.3,0.3,0.7,0.6,1,0.9l0.6,0.5l0.5,0.4c0.6,0.6,1.2,1.1,1.8,1.7c0.3,0.3,0.6,0.7,1,1
		l0.5,0.6l0.4,0.4c0.6,0.6,1.1,1.2,1.7,1.8c0.3,0.3,0.6,0.7,0.9,1.1l0.5,0.6l0.4,0.4c0.5,0.6,1.1,1.2,1.6,1.9
		c0.3,0.4,0.6,0.7,0.9,1.1l0.5,0.6l0.4,0.5c0.5,0.6,1,1.3,1.5,1.9c0.3,0.4,0.6,0.8,0.9,1.2l0.4,0.6l0.3,0.5c0.5,0.7,0.9,1.3,1.4,2
		c0.3,0.4,0.5,0.8,0.8,1.2l0.4,0.6l0.3,0.5c0.4,0.7,0.9,1.4,1.3,2c0.3,0.4,0.5,0.9,0.8,1.3l0.4,0.6l0.3,0.5c0.4,0.7,0.8,1.4,1.2,2.1
		c0.3,0.5,0.5,0.9,0.7,1.4l0.3,0.7l0.3,0.5c0.4,0.7,0.7,1.4,1.1,2.1c0.2,0.5,0.5,1,0.7,1.5l0.3,0.7l0.2,0.5c0.3,0.7,0.7,1.4,1,2.2
		c0.2,0.5,0.4,1,0.6,1.5l0.3,0.7l0.2,0.5c0.3,0.7,0.6,1.5,0.9,2.2c0.2,0.5,0.4,1.1,0.6,1.6l0.2,0.7l0.2,0.5c0.3,0.7,0.5,1.5,0.8,2.2
		c0.2,0.6,0.3,1.1,0.5,1.7l0.2,0.7l0.1,0.5c0.2,0.8,0.4,1.5,0.6,2.3c0.2,0.6,0.3,1.2,0.4,1.8l0.2,0.7l0.1,0.6
		c0.2,0.7,0.4,1.5,0.5,2.2c0.1,0.6,0.2,1.2,0.4,1.9l0.1,0.7l0.1,0.6c0.1,0.7,0.3,1.5,0.4,2.2c0.1,0.7,0.2,1.3,0.3,2l0.1,0.6l0.1,0.5
		c0.1,0.8,0.2,1.5,0.3,2.3c0.1,0.7,0.1,1.4,0.2,2l0.1,0.6l0,0.6c0.1,0.8,0.1,1.5,0.2,2.3c0,0.7,0.1,1.4,0.1,2.1l0,0.6
		c0,0.6,0,13.8,0,22.6c0,3.6,0,6.7,0,8.6H274.5z M316.9,205.8c-0.1-0.4-0.2-0.9-0.3-1.3l-0.2-0.7l-0.2-0.7c-0.2-0.8-0.4-1.5-0.6-2.3
		c-0.2-0.7-0.4-1.4-0.6-2.1l-0.2-0.7l-0.2-0.7c-0.2-0.8-0.4-1.5-0.7-2.3c-0.2-0.7-0.4-1.3-0.7-2l-0.2-0.7l-0.2-0.7
		c-0.3-0.7-0.5-1.5-0.8-2.2c-0.2-0.7-0.5-1.3-0.8-2l-0.3-0.7l-0.3-0.7c-0.3-0.7-0.6-1.4-0.9-2.2c-0.3-0.6-0.6-1.3-0.9-1.9l-0.3-0.7
		l-0.3-0.6c-0.3-0.7-0.6-1.4-1-2.1c-0.3-0.6-0.6-1.2-0.9-1.8l-0.3-0.6l2.8-1.8c1.9,3.5,3.5,7.1,4.9,10.6c2.7,6.5,4.7,13.3,6.2,20.1
		L316.9,205.8z M319.6,259.2c0-1.8,0-4.6,0-7.8c0-10.2,0-19-0.1-22.3l3.4-0.4c0,4.6,0.1,15.5,0.1,22.6c0,3.3,0,6.2,0,7.9H319.6z"/>
	<linearGradient id="SVGID_2_" gradientUnits="userSpaceOnUse" x1="11.3686" y1="200" x2="388.6313" y2="200">
		<stop  offset="0" style="stop-color:#0081C6"/>
		<stop  offset="5.124450e-02" style="stop-color:#0979C2"/>
		<stop  offset="0.3579" style="stop-color:#3853B0"/>
		<stop  offset="0.6293" style="stop-color:#5A37A2"/>
		<stop  offset="0.8526" style="stop-color:#6F269A"/>
		<stop  offset="1" style="stop-color:#762097"/>
	</linearGradient>
	<circle class="st1" cx="200" cy="200" r="178"/>
</g>
</svg>
