<?xml version="1.0" encoding="utf-8"?>
<!-- Generator: Adobe Illustrator 22.1.0, SVG Export Plug-In . SVG Version: 6.00 Build 0)  -->
<svg version="1.1" id="Capa_1" xmlns="http://www.w3.org/2000/svg" xmlns:xlink="http://www.w3.org/1999/xlink" x="0px" y="0px"
	 viewBox="0 0 400 400" style="enable-background:new 0 0 400 400;" xml:space="preserve">
<style type="text/css">
	.st0{fill:url(#SVGID_1_);}
	.st1{fill:url(#SVGID_2_);}
	.st2{fill:url(#SVGID_3_);}
	.st3{fill:none;stroke:url(#SVGID_4_);stroke-width:21.2627;stroke-miterlimit:10;}
</style>
<g>
	<g>
		<linearGradient id="SVGID_1_" gradientUnits="userSpaceOnUse" x1="67.3004" y1="123.4566" x2="345.7724" y2="308.5437">
			<stop  offset="0" style="stop-color:#0081C6"/>
			<stop  offset="5.124450e-02" style="stop-color:#0979C2"/>
			<stop  offset="0.3579" style="stop-color:#3853B0"/>
			<stop  offset="0.6293" style="stop-color:#5A37A2"/>
			<stop  offset="0.8526" style="stop-color:#6F269A"/>
			<stop  offset="1" style="stop-color:#762097"/>
		</linearGradient>
		<path class="st0" d="M267.8,288.3c-35.1,0-63.6-28.5-63.6-63.6c0-0.5,0-1,0.1-1.5c0-0.1,0-0.3,0-0.4c0-0.6,0-3.4-0.2-13.6
			c-1.5-0.1-2.9-0.6-4.1-1.3c-1.2,0.7-2.6,1.2-4.1,1.3c-0.1,9.1-0.2,13-0.2,13.5c0,0.2,0,0.4,0,0.6c0,0.4,0,0.9,0,1.4
			c0,35.1-28.5,63.6-63.6,63.6s-63.6-28.5-63.6-63.6c0-13.2,4.1-25.9,11.7-36.7c0.2-0.4,0.5-0.7,0.7-1.1l1.2-1.5
			c0.5-0.6,1-1.2,1.5-1.8l45.8-57.1c7.1-9.3,18.2-14.9,29.9-14.9c19.7,0,35.9,15.3,37.4,34.6c1.2,0.2,2.3,0.6,3.3,1.2
			c1-0.6,2.1-1,3.3-1.2c1.6-19.4,17.7-34.6,37.4-34.6c11.7,0,22.9,5.6,29.9,15l0,0.1l45.8,57c0.2,0.3,0.6,0.7,1,1.2l1.5,1.9
			c0.3,0.4,0.6,0.8,0.9,1.3c7.6,10.8,11.6,23.4,11.6,36.6C331.4,259.8,302.9,288.3,267.8,288.3z M219.4,222.3l0.1,0.4l-0.1,1.3
			c0,0.4,0,0.6,0,0.8c0,26.7,21.7,48.5,48.5,48.5c26.7,0,48.5-21.7,48.5-48.5c0-10.2-3.2-20-9.2-28.3l-1.6-2.1
			c-0.3-0.3-0.5-0.7-0.8-0.9l-46.2-57.5c-4.2-5.7-10.9-9.1-17.9-9.1c-12.3,0-22.4,10-22.4,22.4l0.2,12.1h-7.8V194h8.3l0.1,7.5
			C219.4,216.6,219.4,220.9,219.4,222.3z M93.4,195.7l0,0.1l-0.4,0.6c-6,8.3-9.2,18.1-9.2,28.3c0,26.7,21.7,48.5,48.5,48.5
			s48.5-21.7,48.5-48.5c0-0.2,0-0.4,0-0.6l-0.1-1.4l0.1-0.4c0-1.4,0.1-5.8,0.3-20.8l0.1-7.5h8.3l-0.1-32.8h-7.7l0.2-12.2
			c0-12.2-10-22.2-22.4-22.2c-7,0-13.7,3.4-17.9,9.1l-0.5,0.6l-45.7,56.9c-0.4,0.4-0.7,0.9-1.1,1.4L93.4,195.7z M180.6,222.6
			c0,0.1,0,0.3,0,0.4C180.6,223,180.6,222.9,180.6,222.6z M307,196.2c0.1,0.1,0.2,0.2,0.2,0.3L307,196.2z"/>
	</g>
	<g>
		<linearGradient id="SVGID_2_" gradientUnits="userSpaceOnUse" x1="40.5002" y1="163.7787" x2="318.9722" y2="348.8658">
			<stop  offset="0" style="stop-color:#0081C6"/>
			<stop  offset="5.124450e-02" style="stop-color:#0979C2"/>
			<stop  offset="0.3579" style="stop-color:#3853B0"/>
			<stop  offset="0.6293" style="stop-color:#5A37A2"/>
			<stop  offset="0.8526" style="stop-color:#6F269A"/>
			<stop  offset="1" style="stop-color:#762097"/>
		</linearGradient>
		<path class="st1" d="M132.2,268c-23.9,0-43.3-19.4-43.3-43.3c0-23.9,19.4-43.3,43.3-43.3c23.9,0,43.3,19.4,43.3,43.3
			C175.4,248.6,156,268,132.2,268z M132.2,191.5c-18.3,0-33.2,14.9-33.2,33.2s14.9,33.2,33.2,33.2c18.3,0,33.2-14.9,33.2-33.2
			S150.5,191.5,132.2,191.5z"/>
	</g>
	<g>
		<linearGradient id="SVGID_3_" gradientUnits="userSpaceOnUse" x1="82.0707" y1="101.234" x2="360.5427" y2="286.3211">
			<stop  offset="0" style="stop-color:#0081C6"/>
			<stop  offset="5.124450e-02" style="stop-color:#0979C2"/>
			<stop  offset="0.3579" style="stop-color:#3853B0"/>
			<stop  offset="0.6293" style="stop-color:#5A37A2"/>
			<stop  offset="0.8526" style="stop-color:#6F269A"/>
			<stop  offset="1" style="stop-color:#762097"/>
		</linearGradient>
		<path class="st2" d="M267.8,268c-23.9,0-43.3-19.4-43.3-43.3c0-23.9,19.4-43.3,43.3-43.3c23.9,0,43.3,19.4,43.3,43.3
			C311.1,248.6,291.7,268,267.8,268z M267.8,191.5c-18.3,0-33.2,14.9-33.2,33.2s14.9,33.2,33.2,33.2c18.3,0,33.2-14.9,33.2-33.2
			S286.1,191.5,267.8,191.5z"/>
	</g>
</g>
<linearGradient id="SVGID_4_" gradientUnits="userSpaceOnUse" x1="11.3686" y1="200" x2="388.6313" y2="200">
	<stop  offset="0" style="stop-color:#0081C6"/>
	<stop  offset="5.124450e-02" style="stop-color:#0979C2"/>
	<stop  offset="0.3579" style="stop-color:#3853B0"/>
	<stop  offset="0.6293" style="stop-color:#5A37A2"/>
	<stop  offset="0.8526" style="stop-color:#6F269A"/>
	<stop  offset="1" style="stop-color:#762097"/>
</linearGradient>
<circle class="st3" cx="200" cy="200" r="178"/>
</svg>
