<?xml version="1.0" encoding="utf-8"?>
<!-- Generator: Adobe Illustrator 22.1.0, SVG Export Plug-In . SVG Version: 6.00 Build 0)  -->
<svg version="1.1" id="Capa_1" xmlns="http://www.w3.org/2000/svg" xmlns:xlink="http://www.w3.org/1999/xlink" x="0px" y="0px"
	 viewBox="0 0 400 400" style="enable-background:new 0 0 400 400;" xml:space="preserve">
<style type="text/css">
	.st0{fill:url(#SVGID_1_);}
	.st1{fill:url(#SVGID_2_);}
	.st2{fill:url(#SVGID_3_);}
	.st3{fill:none;stroke:url(#SVGID_4_);stroke-width:21.2627;stroke-miterlimit:10;}
</style>
<g>
	<linearGradient id="SVGID_1_" gradientUnits="userSpaceOnUse" x1="62.522" y1="200" x2="337.478" y2="200">
		<stop  offset="0" style="stop-color:#0081C6"/>
		<stop  offset="5.124450e-02" style="stop-color:#0979C2"/>
		<stop  offset="0.3579" style="stop-color:#3853B0"/>
		<stop  offset="0.6293" style="stop-color:#5A37A2"/>
		<stop  offset="0.8526" style="stop-color:#6F269A"/>
		<stop  offset="1" style="stop-color:#762097"/>
	</linearGradient>
	<path class="st0" d="M200,62.5c-75.8,0-137.5,61.7-137.5,137.5c0,75.8,61.7,137.5,137.5,137.5S337.5,275.8,337.5,200
		C337.5,124.2,275.8,62.5,200,62.5z M326.1,194.4h-24.2c-1.3-23.9-10.9-45.7-25.9-62.4l8.7-8.7c2.2-2.2,2.2-5.7,0-7.9
		c-2.2-2.2-5.7-2.2-7.9,0L268,124c-16.8-15-38.5-24.6-62.4-25.9V73.9C270.8,76.7,323.3,129.2,326.1,194.4z M200,290.8
		C200,290.8,200,290.8,200,290.8C200,290.8,200,290.8,200,290.8c-50.2,0-90.9-40.8-90.9-90.8c0,0,0,0,0,0c0,0,0,0,0,0
		c0-50.1,40.8-90.8,90.8-90.8c50.1,0,90.8,40.7,90.8,90.8c0,0,0,0,0,0c0,0,0,0,0,0C290.8,250.1,250.1,290.8,200,290.8z M194.4,73.9
		v24.2c-23.9,1.3-45.7,10.9-62.4,25.9l-8.7-8.7c-2.2-2.2-5.7-2.2-7.9,0c-2.2,2.2-2.2,5.7,0,7.9l8.7,8.7
		c-15,16.8-24.6,38.5-25.9,62.4H73.9C76.7,129.2,129.2,76.7,194.4,73.9z M73.9,205.6h24.2c1.3,23.9,10.9,45.7,25.9,62.5l-8.7,8.7
		c-2.2,2.2-2.2,5.7,0,7.9c1.1,1.1,2.5,1.6,4,1.6c1.4,0,2.9-0.5,4-1.6l8.7-8.7c16.8,15,38.5,24.6,62.4,25.9v24.2
		C129.2,323.3,76.7,270.8,73.9,205.6z M205.6,326.1v-24.2c23.9-1.3,45.7-10.9,62.4-25.9l8.7,8.7c1.1,1.1,2.5,1.6,4,1.6
		c1.4,0,2.9-0.5,4-1.6c2.2-2.2,2.2-5.7,0-7.9l-8.7-8.7c15-16.8,24.6-38.5,25.9-62.4h24.2C323.3,270.8,270.8,323.3,205.6,326.1z"/>
	<linearGradient id="SVGID_2_" gradientUnits="userSpaceOnUse" x1="144.7994" y1="200.0149" x2="255.1969" y2="200.0149">
		<stop  offset="0" style="stop-color:#0081C6"/>
		<stop  offset="5.124450e-02" style="stop-color:#0979C2"/>
		<stop  offset="0.3579" style="stop-color:#3853B0"/>
		<stop  offset="0.6293" style="stop-color:#5A37A2"/>
		<stop  offset="0.8526" style="stop-color:#6F269A"/>
		<stop  offset="1" style="stop-color:#762097"/>
	</linearGradient>
	<path class="st1" d="M243.1,146l-57.7,27.4c-4.7,2.2-9.9,7.4-12.1,12.1L146,243.1c-2,4.2-1.2,7.1-0.1,8.8c1.3,2.1,3.5,3.2,6.1,3.2
		c1.5,0,3.1-0.4,4.8-1.2l57.6-27.4c4.7-2.2,9.9-7.4,12.1-12.1l27.4-57.6c2-4.2,1.2-7.1,0.1-8.8C252,144.8,247.8,143.8,243.1,146z
		 M216.5,209.7c-1.1,2.4-4.4,5.7-6.8,6.8l-49.8,23.7l23.7-49.8c1.1-2.4,4.4-5.7,6.8-6.8l49.8-23.7L216.5,209.7z"/>
	<linearGradient id="SVGID_3_" gradientUnits="userSpaceOnUse" x1="187.6601" y1="199.9969" x2="212.3365" y2="199.9969">
		<stop  offset="0" style="stop-color:#0081C6"/>
		<stop  offset="5.124450e-02" style="stop-color:#0979C2"/>
		<stop  offset="0.3579" style="stop-color:#3853B0"/>
		<stop  offset="0.6293" style="stop-color:#5A37A2"/>
		<stop  offset="0.8526" style="stop-color:#6F269A"/>
		<stop  offset="1" style="stop-color:#762097"/>
	</linearGradient>
	<path class="st2" d="M191.3,208.7c4.8,4.8,12.6,4.8,17.5,0c4.8-4.8,4.8-12.6,0-17.4c-4.8-4.8-12.6-4.8-17.5,0
		C186.5,196.1,186.5,203.9,191.3,208.7z"/>
</g>
<linearGradient id="SVGID_4_" gradientUnits="userSpaceOnUse" x1="11.3686" y1="200" x2="388.6313" y2="200">
	<stop  offset="0" style="stop-color:#0081C6"/>
	<stop  offset="5.124450e-02" style="stop-color:#0979C2"/>
	<stop  offset="0.3579" style="stop-color:#3853B0"/>
	<stop  offset="0.6293" style="stop-color:#5A37A2"/>
	<stop  offset="0.8526" style="stop-color:#6F269A"/>
	<stop  offset="1" style="stop-color:#762097"/>
</linearGradient>
<circle class="st3" cx="200" cy="200" r="178"/>
</svg>
