<?xml version="1.0" encoding="utf-8"?>
<!-- Generator: Adobe Illustrator 22.1.0, SVG Export Plug-In . SVG Version: 6.00 Build 0)  -->
<svg version="1.1" id="Capa_1" xmlns="http://www.w3.org/2000/svg" xmlns:xlink="http://www.w3.org/1999/xlink" x="0px" y="0px"
	 viewBox="0 0 400 400" style="enable-background:new 0 0 400 400;" xml:space="preserve">
<style type="text/css">
	.st0{fill:url(#SVGID_1_);}
	.st1{fill:none;stroke:url(#SVGID_2_);stroke-width:21.2627;stroke-miterlimit:10;}
</style>
<linearGradient id="SVGID_1_" gradientUnits="userSpaceOnUse" x1="67.5629" y1="200" x2="332.4371" y2="200">
	<stop  offset="0" style="stop-color:#0081C6"/>
	<stop  offset="5.124450e-02" style="stop-color:#0979C2"/>
	<stop  offset="0.3579" style="stop-color:#3853B0"/>
	<stop  offset="0.6293" style="stop-color:#5A37A2"/>
	<stop  offset="0.8526" style="stop-color:#6F269A"/>
	<stop  offset="1" style="stop-color:#762097"/>
</linearGradient>
<path class="st0" d="M321.7,176.2h-4.9c-4.3,0-8.3,2.6-9.9,6.6h-10.1c-0.3-1.2-0.7-2.3-1.1-3.6l-0.2-0.5c-0.6-1.8-1.2-3.4-1.8-4.8
	l-0.2-0.5c-0.5-1.3-1-2.6-1.6-4c-5-11.5-11.7-22-20.2-31.4c-3.6-4-7.4-7.7-11.4-11.2l-0.2-0.2c-1-0.9-2.1-1.7-3.2-2.6l-0.4-0.3
	c-0.9-0.7-1.9-1.5-2.9-2.2l-0.4-0.3c-5.4-3.9-11.2-7.4-17.1-10.4c-0.2-0.1-0.4-0.2-0.6-0.3l-0.6-0.3c-0.8-0.4-1.7-0.8-2.6-1.2
	l-0.6-0.3c-1.1-0.5-2.1-0.9-3.2-1.4l-0.5-0.2c-3.7-1.5-7.4-2.8-11.3-3.9c-1.3-0.4-2.6-0.7-3.9-1l-0.9-0.2c-1.1-0.3-2.1-0.5-3.2-0.7
	l-0.2,0c-1.3-0.3-2.6-0.5-3.9-0.8l-0.8-0.1c-3.9-0.7-7.9-1.1-11.7-1.4c-1.7-0.1-3.4-0.2-5-0.2l-1.6,0c-0.7,0-1.5,0-2.2,0l-1,0
	c-0.7,0-1.3,0-2,0c-0.9,0-1.8,0.1-2.7,0.1c-1,0.1-2,0.1-2.9,0.2l-1.4,0.1c-45.4,4.3-84.4,34.8-99.2,77.8l-0.4,1.3
	c-0.4,1.1-0.7,2.1-1,3.2c-1.1,3.4-1.9,6.9-2.6,10.3c-0.1,0.7-0.3,1.4-0.4,2.1l-0.1,0.6c-0.9,5.2-1.5,10.3-1.8,15.2
	c-0.1,1.8-0.2,3.7-0.2,5.9c0,9.7,1.2,19.3,3.5,28.6c3,11.8,13.7,20,26,20h24.1l21.7,31.7c2.2,3.2,5.7,5,9.6,5l0.6,0
	c4.1-0.2,7.6-2.4,9.6-6l22.9-41.9h88c13.5,0,25.8-10.8,27.3-24.1c0.2-1.3,0.3-2.5,0.4-3.8c0.1-1.5,0.2-3,0.3-4.6
	c0.1-1.2,0.1-2.4,0.1-3.6h5.3c1.7,4,5.6,6.6,9.9,6.6h4.9c6,0,10.8-4.8,10.8-10.8v-26C332.4,181,327.6,176.2,321.7,176.2z
	 M97.5,189.8c12-40.1,50.9-67.3,93-64.6c34.9,2.2,65.7,24.9,78.6,57.8c0.8,2.1,1.6,4.4,2.3,6.8H97.5z M272.3,216.7v4.2
	c0,9.8-7.9,17.7-17.7,17.7h-75.3l-0.8-0.3l-0.2,0c-0.6,0.1-1.1,0.2-1.5,0.3l-8.9,0c-6,0-12,2.1-16.3,6.4c-3.1,3.1-7.1,4.8-11.5,4.8
	h-21.7c-9.7,0-21.5-6.5-23.8-15.8c-2.5-9.8,0-21.1,0-21.1s0,0,0,0h177.5v3.2C272.2,216.3,272.2,216.5,272.3,216.7z"/>
<linearGradient id="SVGID_2_" gradientUnits="userSpaceOnUse" x1="11.3686" y1="200" x2="388.6313" y2="200">
	<stop  offset="0" style="stop-color:#0081C6"/>
	<stop  offset="5.124450e-02" style="stop-color:#0979C2"/>
	<stop  offset="0.3579" style="stop-color:#3853B0"/>
	<stop  offset="0.6293" style="stop-color:#5A37A2"/>
	<stop  offset="0.8526" style="stop-color:#6F269A"/>
	<stop  offset="1" style="stop-color:#762097"/>
</linearGradient>
<circle class="st1" cx="200" cy="200" r="178"/>
</svg>
