<?xml version="1.0" encoding="utf-8"?>
<!-- Generator: Adobe Illustrator 22.1.0, SVG Export Plug-In . SVG Version: 6.00 Build 0)  -->
<svg version="1.1" id="Capa_1" xmlns="http://www.w3.org/2000/svg" xmlns:xlink="http://www.w3.org/1999/xlink" x="0px" y="0px"
	 viewBox="0 0 400 400" style="enable-background:new 0 0 400 400;" xml:space="preserve">
<style type="text/css">
	.st0{fill:url(#SVGID_1_);}
	.st1{fill:url(#SVGID_2_);}
	.st2{fill:url(#SVGID_3_);}
	.st3{fill:url(#SVGID_4_);}
	.st4{fill:url(#SVGID_5_);}
	.st5{fill:url(#SVGID_6_);}
	.st6{fill:none;stroke:url(#SVGID_7_);stroke-width:21.2627;stroke-miterlimit:10;}
</style>
<g>
	<linearGradient id="SVGID_1_" gradientUnits="userSpaceOnUse" x1="91.7561" y1="326.1528" x2="292.7995" y2="100.2184">
		<stop  offset="0" style="stop-color:#0081C6"/>
		<stop  offset="5.124450e-02" style="stop-color:#0979C2"/>
		<stop  offset="0.3579" style="stop-color:#3853B0"/>
		<stop  offset="0.6293" style="stop-color:#5A37A2"/>
		<stop  offset="0.8526" style="stop-color:#6F269A"/>
		<stop  offset="1" style="stop-color:#762097"/>
	</linearGradient>
	<path class="st0" d="M222.3,116.7c-3-3-6.9-4.7-11.1-4.7c0,0-0.1,0-0.1,0c-4.2,0-8.1,1.6-11.1,4.6l-8.2,8.1
		c-4.5,4.5-5.7,11-3.7,16.7l-0.7,0.7c-7.1,7-11.1,16.4-11.1,26.4c0,7.1,1.9,13.9,5.6,19.9c-6.3-1.1-13,0.7-17.8,5.5L81.8,275
		c-7.9,7.8-8,20.7-0.2,28.6l13.9,14.1c3.9,4,9.2,6,14.4,6c5.1,0,10.3-1.9,14.2-5.8l82.2-81.2c3.8-3.8,6-8.9,6-14.3
		c0-1.3-0.1-2.6-0.3-3.9c5.9,3.5,12.5,5.3,19.2,5.3c9.5,0,19-3.6,26.3-10.8l0.8-0.8c1.7,0.6,3.5,1,5.2,1c4,0,8-1.5,11.1-4.5l8.2-8.1
		c3-3,4.7-6.9,4.7-11.1c0-4.2-1.6-8.2-4.6-11.2L222.3,116.7z M198.2,228.5L116,309.6c-3.4,3.4-9,3.3-12.3-0.1l-13.9-14.1
		c-3.4-3.4-3.3-9,0.1-12.3L172,202c1.7-1.7,3.9-2.5,6.1-2.5c2.3,0,4.5,0.9,6.2,2.6l13.9,14.1c1.6,1.7,2.5,3.9,2.5,6.2
		C200.8,224.6,199.8,226.8,198.2,228.5z M212.7,204.7l-17.6-17.8c-4.9-4.9-7.5-11.4-7.5-18.4c0-5,1.5-9.7,4.1-13.8l53.1,53.7
		C234.8,214.7,221.4,213.4,212.7,204.7z M274.8,192.3l-8.2,8.1c-1.7,1.7-4.4,1.6-6.1,0L199.8,139c-1.7-1.7-1.6-4.4,0-6.1l8.2-8.1
		c0.8-0.8,1.8-1.3,3-1.2c1.1,0,2.2,0.5,3,1.3l60.7,61.4c0.8,0.8,1.2,1.9,1.2,3C276,190.4,275.6,191.5,274.8,192.3z"/>
	<linearGradient id="SVGID_2_" gradientUnits="userSpaceOnUse" x1="86.8806" y1="321.8145" x2="287.924" y2="95.88">
		<stop  offset="0" style="stop-color:#0081C6"/>
		<stop  offset="5.124450e-02" style="stop-color:#0979C2"/>
		<stop  offset="0.3579" style="stop-color:#3853B0"/>
		<stop  offset="0.6293" style="stop-color:#5A37A2"/>
		<stop  offset="0.8526" style="stop-color:#6F269A"/>
		<stop  offset="1" style="stop-color:#762097"/>
	</linearGradient>
	<path class="st1" d="M176.2,219.1c-4.5-4.5-11.7-4.5-16.2-0.1l-26.2,25.9c-2.2,2.2-3.4,5-3.4,8.1c0,3.1,1.2,6,3.3,8.1l4.9,5
		c2.2,2.2,5,3.4,8.1,3.4c0,0,0.1,0,0.1,0c3,0,5.9-1.2,8.1-3.3l26.3-25.9l0,0c4.5-4.5,4.5-11.7,0.1-16.2L176.2,219.1z M146.7,258
		l-4.9-5l26.2-25.9l4.9,5L146.7,258z"/>
	<linearGradient id="SVGID_3_" gradientUnits="userSpaceOnUse" x1="128.0874" y1="358.4815" x2="329.1308" y2="132.5471">
		<stop  offset="0" style="stop-color:#0081C6"/>
		<stop  offset="5.124450e-02" style="stop-color:#0979C2"/>
		<stop  offset="0.3579" style="stop-color:#3853B0"/>
		<stop  offset="0.6293" style="stop-color:#5A37A2"/>
		<stop  offset="0.8526" style="stop-color:#6F269A"/>
		<stop  offset="1" style="stop-color:#762097"/>
	</linearGradient>
	<path class="st2" d="M324.1,157.5c-0.7-3.1-3.8-5-6.9-4.3l-32,7.3c-3.1,0.7-5,3.8-4.3,6.9c0.6,2.7,3,4.5,5.6,4.5
		c0.4,0,0.9,0,1.3-0.1l32-7.3C322.9,163.7,324.8,160.6,324.1,157.5z"/>
	<linearGradient id="SVGID_4_" gradientUnits="userSpaceOnUse" x1="60.2122" y1="298.084" x2="261.2556" y2="72.1496">
		<stop  offset="0" style="stop-color:#0081C6"/>
		<stop  offset="5.124450e-02" style="stop-color:#0979C2"/>
		<stop  offset="0.3579" style="stop-color:#3853B0"/>
		<stop  offset="0.6293" style="stop-color:#5A37A2"/>
		<stop  offset="0.8526" style="stop-color:#6F269A"/>
		<stop  offset="1" style="stop-color:#762097"/>
	</linearGradient>
	<path class="st3" d="M233.2,119.7c0.4,0.1,0.9,0.1,1.3,0.1c2.6,0,5-1.8,5.6-4.5l7.3-32c0.7-3.1-1.2-6.2-4.3-6.9
		c-3.1-0.7-6.2,1.2-6.9,4.3l-7.3,32C228.2,115.9,230.1,119,233.2,119.7z"/>
	<linearGradient id="SVGID_5_" gradientUnits="userSpaceOnUse" x1="105.0683" y1="337.9984" x2="306.1117" y2="112.064">
		<stop  offset="0" style="stop-color:#0081C6"/>
		<stop  offset="5.124450e-02" style="stop-color:#0979C2"/>
		<stop  offset="0.3579" style="stop-color:#3853B0"/>
		<stop  offset="0.6293" style="stop-color:#5A37A2"/>
		<stop  offset="0.8526" style="stop-color:#6F269A"/>
		<stop  offset="1" style="stop-color:#762097"/>
	</linearGradient>
	<path class="st4" d="M264.1,151.7c1.1,1.7,2.9,2.6,4.8,2.6c1.1,0,2.2-0.3,3.2-1l23.6-15.7c2.6-1.8,3.4-5.3,1.6-8
		c-1.8-2.6-5.3-3.4-8-1.6l-23.6,15.7C263,145.5,262.3,149,264.1,151.7z"/>
	<linearGradient id="SVGID_6_" gradientUnits="userSpaceOnUse" x1="83.2301" y1="318.5661" x2="284.2734" y2="92.6316">
		<stop  offset="0" style="stop-color:#0081C6"/>
		<stop  offset="5.124450e-02" style="stop-color:#0979C2"/>
		<stop  offset="0.3579" style="stop-color:#3853B0"/>
		<stop  offset="0.6293" style="stop-color:#5A37A2"/>
		<stop  offset="0.8526" style="stop-color:#6F269A"/>
		<stop  offset="1" style="stop-color:#762097"/>
	</linearGradient>
	<path class="st5" d="M248.9,136.6c1,0.6,2.1,1,3.2,1c1.9,0,3.7-0.9,4.8-2.6l15.7-23.6c1.8-2.6,1-6.2-1.6-8c-2.6-1.8-6.2-1-8,1.6
		l-15.7,23.6C245.6,131.2,246.3,134.8,248.9,136.6z"/>
</g>
<linearGradient id="SVGID_7_" gradientUnits="userSpaceOnUse" x1="11.3686" y1="200" x2="388.6313" y2="200">
	<stop  offset="0" style="stop-color:#0081C6"/>
	<stop  offset="5.124450e-02" style="stop-color:#0979C2"/>
	<stop  offset="0.3579" style="stop-color:#3853B0"/>
	<stop  offset="0.6293" style="stop-color:#5A37A2"/>
	<stop  offset="0.8526" style="stop-color:#6F269A"/>
	<stop  offset="1" style="stop-color:#762097"/>
</linearGradient>
<circle class="st6" cx="200" cy="200" r="178"/>
</svg>
