<?xml version="1.0" encoding="utf-8"?>
<!-- Generator: Adobe Illustrator 22.1.0, SVG Export Plug-In . SVG Version: 6.00 Build 0)  -->
<svg version="1.1" id="Capa_1" xmlns="http://www.w3.org/2000/svg" xmlns:xlink="http://www.w3.org/1999/xlink" x="0px" y="0px"
	 viewBox="0 0 400 400" style="enable-background:new 0 0 400 400;" xml:space="preserve">
<style type="text/css">
	.st0{fill:url(#SVGID_1_);}
	.st1{fill:none;stroke:url(#SVGID_2_);stroke-width:21.2627;stroke-miterlimit:10;}
</style>
<linearGradient id="SVGID_1_" gradientUnits="userSpaceOnUse" x1="86.2944" y1="200" x2="313.7056" y2="200">
	<stop  offset="0" style="stop-color:#0081C6"/>
	<stop  offset="5.124450e-02" style="stop-color:#0979C2"/>
	<stop  offset="0.3579" style="stop-color:#3853B0"/>
	<stop  offset="0.6293" style="stop-color:#5A37A2"/>
	<stop  offset="0.8526" style="stop-color:#6F269A"/>
	<stop  offset="1" style="stop-color:#762097"/>
</linearGradient>
<path class="st0" d="M288.8,147.7V96.1c0-3.3-2-6.3-5-7.6c-3.1-1.3-6.6-0.6-8.9,1.8c-41.2,41.2-93.8,47.9-97.7,48.3h-63.9
	c-4.5,0-8.2,3.7-8.2,8.2v7.3c-11,3.5-18.7,13.9-18.7,25.6c0,11.7,7.7,22.1,18.7,25.6v7.3c0,4.5,3.7,8.2,8.2,8.2h8.6
	c6.4,3.8,12.6,31.7,15.5,45.2c5.4,24.5,8.6,37.5,16.7,42.4c3.9,2.3,8.9,3.6,14.7,3.6c3.8,0,7.8-0.5,11.3-1.5
	c6.3-1.7,12.9-4.3,14.7-10.7c0.9-3.3,0.2-6.1-3.1-18.2c-4.1-15-12.2-45.3-9.7-60.1c14,2.4,57.6,12.4,92.9,47.7
	c0.8,0.8,1.7,1.4,2.8,1.8l0.2,0.1c1.8,0.7,3.8,0.6,5.6,0l0.3-0.1c2-0.8,3.6-2.4,4.5-4.5l0.1-0.2c0.3-0.9,0.5-1.8,0.5-2.8v-51.7
	c14.6-3.7,24.9-16.7,24.9-32S303.4,151.4,288.8,147.7z M297.4,179.8c0,6.2-3.4,11.7-8.6,14.6v-29.1
	C294,168.1,297.4,173.6,297.4,179.8z M175.9,286L175.9,286c0.7,2.7,1.6,5.8,2.2,8.2c-0.6,0.2-1.4,0.4-2.3,0.7
	c-4.8,1.3-10.8,1.2-13.1-0.2c-2.9-2.5-7.4-23.2-9.4-32.1c-3.5-15.8-6.8-30.8-11.9-41.7h24.3C163.6,238.3,169.8,263.5,175.9,286z
	 M161.2,155v49.6h-39.9V155H161.2z M264,120.8v117.9c-31.6-22.7-63.4-30.5-78.3-33.1v-51.7C200.7,151.3,232.4,143.5,264,120.8z
	 M105,173.1v13.3c-1.5-1.8-2.4-4.2-2.4-6.6S103.5,175,105,173.1z"/>
<linearGradient id="SVGID_2_" gradientUnits="userSpaceOnUse" x1="11.3686" y1="200" x2="388.6313" y2="200">
	<stop  offset="0" style="stop-color:#0081C6"/>
	<stop  offset="5.124450e-02" style="stop-color:#0979C2"/>
	<stop  offset="0.3579" style="stop-color:#3853B0"/>
	<stop  offset="0.6293" style="stop-color:#5A37A2"/>
	<stop  offset="0.8526" style="stop-color:#6F269A"/>
	<stop  offset="1" style="stop-color:#762097"/>
</linearGradient>
<circle class="st1" cx="200" cy="200" r="178"/>
</svg>
