<?xml version="1.0" encoding="utf-8"?>
<!-- Generator: Adobe Illustrator 22.1.0, SVG Export Plug-In . SVG Version: 6.00 Build 0)  -->
<svg version="1.1" id="Capa_1" xmlns="http://www.w3.org/2000/svg" xmlns:xlink="http://www.w3.org/1999/xlink" x="0px" y="0px"
	 viewBox="0 0 400 400" style="enable-background:new 0 0 400 400;" xml:space="preserve">
<style type="text/css">
	.st0{fill:url(#SVGID_1_);}
	.st1{fill:url(#SVGID_2_);}
	.st2{fill:url(#SVGID_3_);}
	.st3{fill:url(#SVGID_4_);}
	.st4{fill:url(#SVGID_5_);}
	.st5{fill:url(#SVGID_6_);}
	.st6{fill:url(#SVGID_7_);}
	.st7{fill:url(#SVGID_8_);}
	.st8{fill:none;}
	.st9{fill:none;stroke:url(#SVGID_9_);stroke-width:21.2627;stroke-miterlimit:10;}
</style>
<g>
	<linearGradient id="SVGID_1_" gradientUnits="userSpaceOnUse" x1="131.4781" y1="56.1907" x2="279.1409" y2="364.1218">
		<stop  offset="0" style="stop-color:#0081C6"/>
		<stop  offset="5.124450e-02" style="stop-color:#0979C2"/>
		<stop  offset="0.3579" style="stop-color:#3853B0"/>
		<stop  offset="0.6293" style="stop-color:#5A37A2"/>
		<stop  offset="0.8526" style="stop-color:#6F269A"/>
		<stop  offset="1" style="stop-color:#762097"/>
	</linearGradient>
	<path class="st0" d="M268.2,139.2v-4.4c0-8.6-2.7-16.8-7.7-23.7l-12.6-17.3c-5.6-7.7-8.6-16.8-8.6-26.3v3.2c0-9-7.3-16.3-16.3-16.3
		c-3,0-42.7,0-45.7,0c-9,0-16.3,7.3-16.3,16.3v-3.2c0,9.5-3,18.6-8.6,26.3l-12.7,17.3c-5.1,6.9-7.7,15.1-7.7,23.7v4.4
		c-14.5,14.9-23.5,35.2-23.5,57.6c0,22.4,9,42.8,23.5,57.6v4.4c0,8.5,2.7,16.9,7.7,23.7l12.6,17.3c5.6,7.7,8.6,16.8,8.6,26.3v3.1
		c0,9,7.3,16.3,16.3,16.3c3,0,42.7,0,45.7,0c9,0,16.3-7.3,16.3-16.3v-3.1c0-9.5,3-18.6,8.6-26.3l12.6-17.3c5-6.8,7.7-15.2,7.7-23.7
		v-4.4c14.5-14.9,23.5-35.2,23.5-57.6C291.7,174.4,282.7,154.1,268.2,139.2z M152.6,120.6l12.7-17.3C173,92.8,177,80.4,177,67.4
		l0.1,3.1c0.4,0,45.3,0,45.8,0.1v-3.2c0,13,4.1,25.4,11.7,35.9l12.6,17.3c1,1.4,1.8,2.9,2.5,4.4c-12-6.8-25.9-10.8-40.7-10.8h-18.3
		c-14.8,0-28.7,3.9-40.7,10.8C150.8,123.5,151.6,122,152.6,120.6z M247.4,273l-12.7,17.3c-7.7,10.5-11.7,22.9-11.7,35.9l-0.1,3.2
		c-0.4,0-0.7-0.2-0.9-0.5l-43.9,0c-0.2,0.3-0.5,0.5-1.1,0.4v-3.1c0-13-4.1-25.4-11.7-35.9L152.6,273c-1-1.4-1.8-2.9-2.5-4.4
		c12,6.8,25.9,10.8,40.7,10.8h18.3c14.8,0,28.7-3.9,40.7-10.8C249.2,270.2,248.4,271.7,247.4,273z M209.2,266h-18.3
		c-38.1,0-69.1-31-69.1-69.1c0-38.1,31-69.1,69.1-69.1h18.3c15.3,0,29.4,5.1,40.9,13.5l0.5,0.6l0.9,0.4
		c16.3,12.7,26.8,32.4,26.8,54.6C278.3,234.9,247.3,266,209.2,266z"/>
	<linearGradient id="SVGID_2_" gradientUnits="userSpaceOnUse" x1="117.3857" y1="24.5402" x2="294.4995" y2="393.8874">
		<stop  offset="0" style="stop-color:#0081C6"/>
		<stop  offset="5.124450e-02" style="stop-color:#0979C2"/>
		<stop  offset="0.3579" style="stop-color:#3853B0"/>
		<stop  offset="0.6293" style="stop-color:#5A37A2"/>
		<stop  offset="0.8526" style="stop-color:#6F269A"/>
		<stop  offset="1" style="stop-color:#762097"/>
	</linearGradient>
	<path class="st1" d="M209.2,134.3h-18.3c-34.5,0-62.5,28-62.5,62.5c0,34.5,28.1,62.5,62.5,62.5h18.3c34.5,0,62.5-28.1,62.5-62.5
		C271.7,162.3,243.6,134.3,209.2,134.3z M209.2,254.8h-18.3c-32,0-58-26-58-58c0-32,26-58,58-58h18.3c32,0,58,26,58,58
		C267.2,228.8,241.1,254.8,209.2,254.8z"/>
	<linearGradient id="SVGID_3_" gradientUnits="userSpaceOnUse" x1="79.1016" y1="42.8987" x2="256.2155" y2="412.2458">
		<stop  offset="0" style="stop-color:#0081C6"/>
		<stop  offset="5.124450e-02" style="stop-color:#0979C2"/>
		<stop  offset="0.3579" style="stop-color:#3853B0"/>
		<stop  offset="0.6293" style="stop-color:#5A37A2"/>
		<stop  offset="0.8526" style="stop-color:#6F269A"/>
		<stop  offset="1" style="stop-color:#762097"/>
	</linearGradient>
	<path class="st2" d="M153.1,180.1c-3.4,0-6,1.1-8,3.4c-2,2.3-2.9,5.6-2.9,9.9v7.6c0,4.3,1,7.7,3,9.9c2,2.3,4.6,3.4,8,3.4
		c3.4,0,6-1.1,8-3.4c2-2.3,2.9-5.6,2.9-9.9v-7.6c0-4.3-1-7.6-3-9.9C159.1,181.2,156.5,180.1,153.1,180.1z M158.5,201.8
		c0,2.8-0.4,4.8-1.4,6.1c-0.9,1.3-2.2,2-4,2s-3.1-0.7-4-2c-0.9-1.3-1.4-3.4-1.4-6.1v-9.3c0-2.7,0.5-4.8,1.4-6.1c0.9-1.3,2.2-2,4-2
		c1.8,0,3.1,0.7,4,2c0.9,1.3,1.4,3.3,1.4,6.1V201.8z"/>
	<linearGradient id="SVGID_4_" gradientUnits="userSpaceOnUse" x1="101.0838" y1="32.3575" x2="278.1976" y2="401.7047">
		<stop  offset="0" style="stop-color:#0081C6"/>
		<stop  offset="5.124450e-02" style="stop-color:#0979C2"/>
		<stop  offset="0.3579" style="stop-color:#3853B0"/>
		<stop  offset="0.6293" style="stop-color:#5A37A2"/>
		<stop  offset="0.8526" style="stop-color:#6F269A"/>
		<stop  offset="1" style="stop-color:#762097"/>
	</linearGradient>
	<polygon class="st3" points="170.6,185.8 177.4,185.8 177.4,213.9 182.9,213.9 182.9,180.5 170.6,181.7 	"/>
	<linearGradient id="SVGID_5_" gradientUnits="userSpaceOnUse" x1="111.3013" y1="27.4579" x2="288.4151" y2="396.805">
		<stop  offset="0" style="stop-color:#0081C6"/>
		<stop  offset="5.124450e-02" style="stop-color:#0979C2"/>
		<stop  offset="0.3579" style="stop-color:#3853B0"/>
		<stop  offset="0.6293" style="stop-color:#5A37A2"/>
		<stop  offset="0.8526" style="stop-color:#6F269A"/>
		<stop  offset="1" style="stop-color:#762097"/>
	</linearGradient>
	<rect x="196.7" y="208.6" class="st4" width="5.5" height="5.3"/>
	<linearGradient id="SVGID_6_" gradientUnits="userSpaceOnUse" x1="119.1307" y1="23.7034" x2="296.2445" y2="393.0506">
		<stop  offset="0" style="stop-color:#0081C6"/>
		<stop  offset="5.124450e-02" style="stop-color:#0979C2"/>
		<stop  offset="0.3579" style="stop-color:#3853B0"/>
		<stop  offset="0.6293" style="stop-color:#5A37A2"/>
		<stop  offset="0.8526" style="stop-color:#6F269A"/>
		<stop  offset="1" style="stop-color:#762097"/>
	</linearGradient>
	<rect x="196.7" y="188.5" class="st5" width="5.5" height="5.3"/>
	<linearGradient id="SVGID_7_" gradientUnits="userSpaceOnUse" x1="132.2086" y1="17.4322" x2="309.3224" y2="386.7793">
		<stop  offset="0" style="stop-color:#0081C6"/>
		<stop  offset="5.124450e-02" style="stop-color:#0979C2"/>
		<stop  offset="0.3579" style="stop-color:#3853B0"/>
		<stop  offset="0.6293" style="stop-color:#5A37A2"/>
		<stop  offset="0.8526" style="stop-color:#6F269A"/>
		<stop  offset="1" style="stop-color:#762097"/>
	</linearGradient>
	<path class="st6" d="M224.2,196.8c1.6-0.7,2.8-1.8,3.7-3.1c0.9-1.3,1.3-2.7,1.3-4.1c0-3-1-5.4-2.9-7c-1.9-1.7-4.5-2.5-7.8-2.5
		c-3.1,0-5.6,0.9-7.6,2.6c-2,1.7-2.9,3.9-2.9,6.4l0,0.1h5.4c0-1.4,0.5-2.5,1.4-3.4c1-0.9,2.2-1.3,3.7-1.3c1.7,0,2.9,0.4,3.8,1.3
		c0.9,0.9,1.3,2.1,1.3,3.7c0,1.6-0.4,2.9-1.2,3.8c-0.8,0.9-2.1,1.3-3.9,1.3h-3.9v4.4h3.9c1.9,0,3.3,0.4,4.2,1.3
		c0.9,0.9,1.4,2.3,1.4,4.2c0,1.7-0.5,3-1.5,4c-1,0.9-2.4,1.4-4.1,1.4c-1.6,0-3-0.5-4-1.4c-1-0.9-1.5-2.1-1.5-3.6h-5.4l0,0.1
		c-0.1,2.9,0.9,5.2,3,6.8c2.1,1.6,4.7,2.5,7.8,2.5c3.3,0,6-0.9,8.1-2.6c2.1-1.7,3.2-4.2,3.2-7.2c0-1.8-0.4-3.3-1.3-4.7
		C227.5,198.5,226.1,197.5,224.2,196.8z"/>
	<linearGradient id="SVGID_8_" gradientUnits="userSpaceOnUse" x1="154.417" y1="6.7825" x2="331.5308" y2="376.1297">
		<stop  offset="0" style="stop-color:#0081C6"/>
		<stop  offset="5.124450e-02" style="stop-color:#0979C2"/>
		<stop  offset="0.3579" style="stop-color:#3853B0"/>
		<stop  offset="0.6293" style="stop-color:#5A37A2"/>
		<stop  offset="0.8526" style="stop-color:#6F269A"/>
		<stop  offset="1" style="stop-color:#762097"/>
	</linearGradient>
	<path class="st7" d="M253.7,183.5c-2-2.3-4.6-3.4-8-3.4c-3.4,0-6,1.1-8,3.4c-2,2.3-2.9,5.6-2.9,9.9v7.6c0,4.3,1,7.7,3,9.9
		c2,2.3,4.6,3.4,8,3.4c3.4,0,6-1.1,8-3.4c2-2.3,2.9-5.6,2.9-9.9v-7.6C256.7,189.1,255.7,185.8,253.7,183.5z M251.1,201.8
		c0,2.8-0.4,4.8-1.4,6.1c-0.9,1.3-2.2,2-4,2s-3.1-0.7-4-2c-0.9-1.3-1.4-3.4-1.4-6.1v-9.3c0-2.7,0.5-4.8,1.4-6.1c0.9-1.3,2.2-2,4-2
		c1.8,0,3.1,0.7,4,2c0.9,1.3,1.4,3.3,1.4,6.1V201.8z"/>
</g>
<circle class="st8" cx="200" cy="200" r="178"/>
<linearGradient id="SVGID_9_" gradientUnits="userSpaceOnUse" x1="11.3686" y1="200" x2="388.6313" y2="200">
	<stop  offset="0" style="stop-color:#0081C6"/>
	<stop  offset="5.124450e-02" style="stop-color:#0979C2"/>
	<stop  offset="0.3579" style="stop-color:#3853B0"/>
	<stop  offset="0.6293" style="stop-color:#5A37A2"/>
	<stop  offset="0.8526" style="stop-color:#6F269A"/>
	<stop  offset="1" style="stop-color:#762097"/>
</linearGradient>
<circle class="st9" cx="200" cy="200" r="178"/>
</svg>
