<?xml version="1.0" encoding="utf-8"?>
<!-- Generator: Adobe Illustrator 22.1.0, SVG Export Plug-In . SVG Version: 6.00 Build 0)  -->
<svg version="1.1" id="Capa_1" xmlns="http://www.w3.org/2000/svg" xmlns:xlink="http://www.w3.org/1999/xlink" x="0px" y="0px"
	 viewBox="0 0 400 400" style="enable-background:new 0 0 400 400;" xml:space="preserve">
<style type="text/css">
	.st0{clip-path:url(#SVGID_2_);}
	.st1{fill:url(#SVGID_3_);}
	.st2{fill:url(#SVGID_4_);}
	.st3{fill:url(#SVGID_5_);}
	.st4{fill:url(#SVGID_6_);}
	.st5{fill:none;stroke:url(#SVGID_7_);stroke-width:21.2627;stroke-miterlimit:10;}
</style>
<g>
	<defs>
		<circle id="SVGID_1_" cx="200" cy="200" r="155.7"/>
	</defs>
	<clipPath id="SVGID_2_">
		<use xlink:href="#SVGID_1_"  style="overflow:visible;"/>
	</clipPath>
	<g class="st0">
		<linearGradient id="SVGID_3_" gradientUnits="userSpaceOnUse" x1="65.8" y1="120.3195" x2="347.7791" y2="402.2986">
			<stop  offset="0" style="stop-color:#0081C6"/>
			<stop  offset="5.124450e-02" style="stop-color:#0979C2"/>
			<stop  offset="0.3579" style="stop-color:#3853B0"/>
			<stop  offset="0.6293" style="stop-color:#5A37A2"/>
			<stop  offset="0.8526" style="stop-color:#6F269A"/>
			<stop  offset="1" style="stop-color:#762097"/>
		</linearGradient>
		<path class="st1" d="M353,348.4c-8.2-9.7-9.4-11.2-9.5-11.4l0,0c-1.8-2.4-4.9-6.1-6.7-7.7c-0.1-0.1-0.3-0.3-0.5-0.5l-0.2-0.2
			c-3.1-3-6.5-6.1-10.5-7.7c-3.1-1.2-6.1-1.5-8.6-1.7c-0.5,0-1.1-0.1-1.5-0.2c-1.1-0.4-2.5-0.8-4.7-1.4c-1.1-0.3-2.7-0.7-4.2-1.2
			c-1.1-3.3-2.7-8.6-3.9-13.3c-0.1-0.3-0.2-0.7-0.3-1c-0.9-2.5-1.9-5.3-2.2-6.5c-0.3-2.3-1-7.4-2.4-16.5c-0.1-0.4-0.2-0.8-0.3-1.2
			c-0.9-3.4-4-15-5.9-19.2c-0.5-1.2-1.6-6.1-2.3-10.7c0.2-9.1,0.5-17.1,0.6-18.2c0.1-0.9,0.1-1.9,0-3.2c3.2-1.2,12.1-5.6,9.6-17.7
			l-0.1-0.3c0.2-2.3,0.2-3.6,0-5.3c-0.1-0.6-0.1-1.3-0.1-3c0-5.2,0-7.6-0.2-11.5c-0.2-3.2-1-6.4-1.7-9c-0.2-0.7-0.6-2.2-0.6-2.5
			c-0.3-3-1.7-5.8-3.7-9.3c0.3-0.3,0.5-0.5,0.8-0.7c3.7-3.2,5.7-7.9,5.8-13.3c5.3-5.9,7-8.3,7.7-9.6c0.6-0.7,2-1.9,2.7-2.4
			c2.7-1.9,4-3.9,4.8-5.1c0.2-0.2,0.3-0.5,0.6-0.8c3-3.9,4.7-10.4-0.1-16.3c-1.2-5.7-6.1-9.7-11.8-9.7c-3,0-5.9,1.1-8.9,3.3
			c-1.1,0.9-1.8,1.5-2.3,2c-3,2.3-4.6,5.7-5,10.4c-3.1,3.2-7.5,7.7-9.7,10c-1.2-3.1-3.8-6.3-9.4-8.2c-2.7-1.8-5.4-2.6-8.2-2.6
			c-1.3,0-2.3,0.2-2.9,0.3c-3.2,0.1-5.8,1-8.2,2.9c-0.7,0.4-1.2,0.6-1.7,0.9c-0.5,0.3-0.9,0.5-2.2,1.1c-2.1,1-3.9,2.2-5.2,3.7
			l-2.7-3.3c-3.1-3.7-4.4-5.3-5.1-6.1c-0.6-1-1.8-2.9-2.5-4.2c0.1-0.8,0.2-1.8,0.2-3.2c0.1-4.3-0.4-7.5-3.5-11.2
			c-0.2-0.3-0.4-0.4-0.6-0.8c-2.2-3.5-4.3-5.5-7.4-6.9c-2.7-2-5.6-3.1-8.5-3.1c0,0,0,0,0,0c-5.4,0-8.5,3.2-9.7,4.5
			c-6.2,5-5.7,12.3-5.5,15.3l0,0.3c0,0.5,0.1,0.9,0.1,1.3c-1,1.9-1.5,3.4-2.1,5.4c-0.2,0.1-0.3,0.2-0.5,0.3
			c-0.2,0.1-0.4,0.3-0.6,0.4c-1.9-5.7-6.4-8.3-10.3-8.9c-1.9-3.4-4.6-5.2-6.1-6.2c-0.3-0.2-0.6-0.4-0.8-0.5
			c-3.2-2.5-6.1-3.8-9.9-4.5c-4.1-0.8-9.3-0.2-13.8,1.4c-5,1.8-8.2,5.3-9.4,10.5l0,0.2c-1.5,3.3-1.9,5.7-2,8
			c-0.4-0.1-0.8-0.2-1.1-0.2l-0.8-0.3c-0.3-0.1-0.8-0.3-1.2-0.5c-1.8-1.7-3.8-2.8-5.5-3.6c-0.6-0.3-1.1-0.6-1.6-0.8
			c-1.1-1.2-3.5-4.4-5.7-7.8c0.6-2,0.6-4,0.1-6c-0.5-1.9-1.6-4.7-4.6-6.8c-0.3-0.4-0.6-0.8-0.9-1.2c-2.6-3.5-6.5-5.6-10.7-5.6h0
			c-3.3,0-5.8,1.3-6.6,1.7c-9,3.9-11,11.7-9.8,17.6c0.9,4.4,2.6,7.4,3.8,9.2l7.2,14l-0.2,1.5c-0.3,3,0.5,6,2.4,8.4l2.2,2.7
			c3.8,4.7,9.7,7.9,16.7,9c2.1,0.7,7.7,3.9,11.1,6.2c0,0.1,0,0.2-0.1,0.3c-0.4,1.5-0.8,3.2-0.8,5.1c0,1.8,0,4.6-0.7,7.6
			c-0.2,0.8-0.4,1.6-0.7,2.5c-1.1,3.4-2.4,7.6-2.4,15.1c0,0.3,0,0.6,0,0.9c-0.1,0.2-0.2,0.3-0.3,0.5c-1.7,2.6-2.2,5.8-1.6,8.7
			l0.9,3.8l0.5,18c0.1,3.9,2.2,7.4,5.4,9.4c0.2,1.9,0.5,3.8,0.7,5.3c0.2,1.6,0.2,1.8,0.1,3.1c-0.1,1.2-0.2,2.7-0.2,5.3
			c0,5,0.8,7.4,1.7,9.7c0.3,0.7,0.4,1.1,0.7,2.3c0.2,1,0.2,1.5,0.3,1.6l0,0.3c-0.2,1-0.4,2.4-0.4,4.6c0,3.8,0.5,9.4,3.1,14.4
			c0,0.6-0.1,1.6-0.2,2.1c-0.1,0.9-0.2,1.7-0.2,2.6c0,0.1-0.1,0.3-0.1,0.4c-0.4,1.3-1,3.4-1,6.2v2.2c-1,1.3-2.1,2.7-2.9,3.8
			c-0.6,0.7-3.3,2.9-5.3,4.3c-1,0.7-1.8,1.5-2.5,2.4c-3.2,4.2-6.5,8.1-7.3,8.9c-2.4,1.9-3.9,4.3-5.2,6.7c-1.6,2.7-3.3,5.6-6.3,7.7
			c-3.8,2.7-5.3,4-6.6,5.2c-0.5,0.4-0.8,0.7-3.7,2.5c-4.4,2.7-6,4.3-8,6.5c-1.1,1.2-2.7,2.9-7.3,6.7c-3.7,3.1-5.1,34.5-3.5,39
			c1.6,4.5,6,7.6,10.8,7.6h253.5c4.4,0,8.5-2.6,10.4-6.6C356.5,382.9,355.9,351.8,353,348.4z M145.9,304.1c2.2-2.7,5.5-7.1,5.5-7.1
			l0.3-0.4V290c0-0.9,0.2-1.6,0.5-2.6c0.3-1,0.6-2.1,0.6-3.5c0-0.5,0.1-1.2,0.1-1.9c0.3-2.6,0.6-6.3-0.9-8.8c-1.7-2.8-1.9-6.8-1.9-9
			c0-1,0.1-1.6,0.2-2.3c0.3-1.4,0.5-2.9-0.3-6.7c-0.5-2.4-1-3.6-1.4-4.6c-0.5-1.2-0.8-2-0.8-4.9c0-2.1,0.1-3.4,0.2-4.4
			c0.1-1.6,0.2-2.8-0.2-5.6c-0.5-4.4-1.6-12.6-1.7-12.6l-2.2-11.9l-0.5-8.9l-0.3-6.8c-0.2-0.3-0.8-1.5-0.8-4.9
			c0-5.5,0.9-8.3,1.8-11.2c0.3-1,0.6-2,0.9-3.2c1.1-4.6,1.1-8.6,1.1-10.8c0-0.4,0.2-1.3,0.4-2.2c0.7-2.9,1.7-7.3-0.8-10.3
			c-3-3.6-16.5-11.4-20.7-12c-3.8-0.5-7-2.1-8.8-4.3l-1.8-2.2l0.5-4.7l-9.5-18.5l-0.3-0.4c0,0-1.3-1.4-1.9-4.4
			c-0.3-1.6,0.5-2.3,2.2-3c0.2-0.1,0.3-0.1,0.4-0.2l0.2-0.1c0.2-0.1,0.5-0.3,0.7-0.3c0,0,0.1,0.1,0.2,0.2c0.9,1.3,1.5,2.1,1.6,2.5
			c0.1,0.3,0.4,0.6,0.6,0.8c-0.2,0.2-0.5,0.4-0.7,0.6c-0.1,0.1-0.2,0.2-0.3,0.2c-0.4,0.3-1.2,0.9-1.2,1.9c0,0.7,0.3,1.3,1,1.9
			c0.7,0.5,1.9,2.5,2.5,3.4c0.7,1.2,7.4,11.5,10.5,13.5c1.2,0.7,2.3,1.3,3.2,1.8c1.1,0.5,2.3,1.1,2.5,1.5c0.9,1.3,3,2.2,5.6,3.1
			c0.4,0.1,0.7,0.2,0.9,0.3c0.8,0.3,2.2,0.6,5.2,1.1c1.2,0.2,2.5,0.4,3.9,0.7c4.5,0.9,6.6,1,7.9,0.5c0.9-0.3,2.5-1.1,3.3-2.7
			c0.1-0.2,0.2-0.3,0.3-0.5c0.6-0.8,1.1-1.8,0.5-3.5c-0.3-0.8-0.8-1.5-1.4-2.2c-0.7-0.9-1.4-1.7-1.3-2.7c0-0.4,0-0.8,0-1.1
			c0-1.7,0.1-2.4,0.9-4.3c0.5-1,0.7-1.9,0.8-2.5c0.2-1,0.2-1,1.1-1.3c2.3-0.8,5.2-1.2,6.9-0.9c1.8,0.3,2.8,0.8,4.4,2
			c0.5,0.4,1,0.7,1.5,1c1.1,0.7,1.7,1.2,2,1.8c0.2,0.6,0.5,1.1,0.8,1.6c0.2,0.4,0.5,0.9,0.5,1c-0.3,0.4-0.5,0.7-0.7,0.9
			c-0.5,0.6-1.1,1.3-1.1,2.5c0,1.6,1.3,3.4,3.4,3.4c0.5,0,1-0.1,1.5-0.3c1.2-0.5,2-1,2.7-1.5c0.4-0.3,0.8-0.5,1.1-0.6
			c0.2-0.1,0.4-0.2,0.6-0.3c0.1-0.1,0.3-0.1,0.5-0.2c0,0.1,0.1,0.2,0.1,0.4c0.6,2.9,1.7,3.8,2.7,4.8c0.1,0.1,0.3,0.3,0.4,0.4
			c1.1,1.1,2.3,2.1,3.5,2.9c0.3,0.2,0.4,0.3,0.6,0.5c0.3,0.3,0.7,0.7,1.6,1.3c0.2,0.1,0.3,0.3,0.5,0.6c0.2,0.4,0.8,1.4,2,1.4
			c0.9,0,1.6-0.5,2.4-1.3c1.5-1.4,3.6-2.8,5.2-3.9c0.6-0.4,1.1-0.7,1.5-1c0.1-0.1,0.2-0.1,0.3-0.1l0.6,0c2.2,0,3.1-2,3.6-4
			c0.3-1.1,0.6-2,0.8-2.7c0.6-2.1,0.8-2.7,1.3-3.6c0.8-1.4,2-4.6,2-5.4c0-0.5-0.2-0.9-0.3-1.1c0,0-0.2-0.4-0.3-1.9l0-0.3
			c-0.2-2.8-0.2-3.6,0.7-4.2c0.6-0.4,1-0.9,1.3-1.2c0.1-0.1,0.2-0.2,0.2-0.2c0.1,0.1,0.3,0.2,0.6,0.4c1,0.8,1.7,1.1,2.2,1.3
			c0.6,0.3,0.9,0.4,1.9,2c0.7,1.1,1.3,1.8,1.6,2.2c0.5,0.7,0.5,0.7,0.5,2.5c0,1.3-0.2,2.1-0.3,2.8c-0.2,1.2-0.3,2.2,0.2,3.9
			c0.8,2.4,4.6,8.6,5.2,9.1c0.2,0.3,2.7,3.2,5.3,6.3c6.9,8.2,12.1,14.5,12.7,15.1c2.1,2.1,3.9,3.2,5.6,3.5c0.1,0,0.1,0.1,0.3,0.3
			c0.2,0.2,0.7,0.8,1.5,0.8c1.6,0,1.7-1.2,2.1-3.6l0.3-1.9c0.4-2.5,0.4-2.7,0.2-4l0-0.2c-0.1-0.7-0.3-1.3-0.5-1.9
			c-0.3-1-0.5-1.7-0.3-2.4c0.1-0.4,0.2-0.8,0.3-1.2c0.2-0.8,0.2-0.9,1.4-1.5c1.5-0.7,2.1-1,2.7-1.4c0.4-0.2,0.9-0.5,1.7-0.9
			c1-0.5,1.5-0.9,1.8-1.2c0.1-0.1,0.1-0.1,0.2-0.1c0,0,0.1,0,0.6,0c0.7,0,1.2-0.1,1.7-0.2c0.2,0,0.4-0.1,0.6-0.1
			c0.1,0,0.4,0,1.2,0.6c1.1,0.8,2.2,1.1,3,1.4c0.4,0.1,1.1,0.4,1.2,0.5c0.1,0.5,0.1,1,0.1,1.5c0.1,1.4,0.1,2.9,0.9,4.3
			c0.2,0.4,0.4,0.7,0.6,1c0.5,0.7,0.7,1,0.9,2.6c0.3,2.7,0.5,3.9,1.1,5.7c0.2,0.5,0.2,1,0.3,1.3c0.2,0.9,0.5,2.3,2.1,2.6l0.3,0
			c1,0,1.6-0.7,2-1.2c0.3-0.4,0.7-0.9,1.5-1.5c1.7-1.2,3-3.7,3.9-5.4c0.2-0.4,0.4-0.8,0.5-1c0.2-0.1,0.5-0.3,1-0.6
			c1.5-0.9,3.8-2.3,5.4-4c2.1-2.2,14-14.4,14-14.4l0.5-0.5l-0.1-0.7c-0.2-1.9-0.1-4,0.1-4.7c0.3-0.3,0.6-0.5,0.8-0.7
			c0.3-0.2,0.5-0.5,1.1-1c0.1,0,0.1-0.1,0.2-0.1c0.2,1.2,0.8,2,1.3,2.8l0.2,0.3c0.3,0.5,0.6,0.8,0.9,1.1c0,0,0.1,0.1,0.1,0.1
			c0,0-0.1,0.1-0.1,0.1c-0.4,0.6-0.8,1.1-1.1,1.5c-0.5,0.8-0.8,1.2-1.6,1.8c-0.1,0-5.4,3.9-6.6,6.7c-0.5,1-5.2,6.4-9.4,10.9
			l-0.7,0.7l0.3,0.9c0,0,1.5,4.9-0.8,6.9c-2.3,2-3.9,4.1-4.8,5.3c-0.3,0.3-0.5,0.6-0.5,0.7c-0.1,0-0.1,0.1-0.2,0.1
			c-0.7,0.4-2.8,1.7-2,4.2c0.2,0.7,0.9,1.8,2.2,3.8c1.4,2.2,3.7,5.9,3.9,7.2c0.1,1.2,0.5,2.8,1,4.4c0.5,2.1,1.2,4.4,1.3,6.3
			c0.2,3.5,0.2,5.6,0.2,10.8c0,2.4,0.1,3.5,0.2,4.3c0.1,0.9,0.1,1.4-0.1,3.2c-0.2,1.5,0.1,2.7,0.3,3.8c0.4,2,0.5,2.2-1.4,2.8
			c-4.5,1.5-8.3,2-8.3,2l-1.8,0.2l0.3,1.7c0.6,3.2,1.4,8.9,1.3,10.5c-0.2,2.5-0.6,19.3-0.6,20.1l0,0.1l0,0.1
			c0.1,0.4,1.7,10.9,3.4,14.8c1.5,3.5,4.9,16.1,5.2,17.3c0.9,5.9,2.3,15.4,2.3,16.2c0,0.8,1,3.9,2.8,9c1.8,6.9,5.1,18.7,7.1,20.3
			c1.4,1.1,5.2,2.2,10.3,3.6c1.7,0.5,3.4,0.9,4,1.2c1.2,0.5,2.8,0.6,4.5,0.8c1.7,0.2,3.7,0.3,5,0.9c1.9,0.7,4.5,3.3,6.1,4.9
			c0.6,0.6,1.1,1,1.4,1.3c1,0.8,4.3,4.8,4.6,5.3c0.1,0.2,0.2,25.7,7.9,34.7H95.2c2.9-2.5,4.2-29.2,5.2-30.3c1.3-1.5,2-2.2,5.2-4.2
			c4-2.4,4.7-3.1,5.7-4.1c0.8-0.8,1.9-1.7,5.3-4.2c5.3-3.8,8.1-8.6,10-11.7c0.8-1.4,1.6-2.6,2-3c2.2-1.6,8.2-9.4,9.4-11
			C139.2,310.1,143.8,306.7,145.9,304.1z"/>
		<linearGradient id="SVGID_4_" gradientUnits="userSpaceOnUse" x1="43.2996" y1="143.0066" x2="311.8522" y2="411.5591">
			<stop  offset="0" style="stop-color:#0081C6"/>
			<stop  offset="5.124450e-02" style="stop-color:#0979C2"/>
			<stop  offset="0.3579" style="stop-color:#3853B0"/>
			<stop  offset="0.6293" style="stop-color:#5A37A2"/>
			<stop  offset="0.8526" style="stop-color:#6F269A"/>
			<stop  offset="1" style="stop-color:#762097"/>
		</linearGradient>
		<path class="st2" d="M166.3,306.2c1.6,0,1.9,0.2,2,0.2c0.1,0.1,0.1,0.1,0.1,0.2c0.3,0.4,0.7,1,1.6,1.5c0.3,0.2,0.6,0.4,1,0.6
			c2.3,1.4,4,2.4,5.4,2.4c0.5,0,0.9-0.1,1.3-0.4c1.2-0.8,2.2-3.2,2.8-4.6l0.2-0.6l-0.2-0.6c-1.6-4.3-3.9-10.9-4-12.4
			c-0.1-2.4-1.3-29.3-1.3-29.3l-12-46.7l-1.9,53.4l-1.4,35.5l1.2,0.4C161.6,306.1,163.5,306.2,166.3,306.2z"/>
		<linearGradient id="SVGID_5_" gradientUnits="userSpaceOnUse" x1="92.4473" y1="93.859" x2="360.9998" y2="362.4115">
			<stop  offset="0" style="stop-color:#0081C6"/>
			<stop  offset="5.124450e-02" style="stop-color:#0979C2"/>
			<stop  offset="0.3579" style="stop-color:#3853B0"/>
			<stop  offset="0.6293" style="stop-color:#5A37A2"/>
			<stop  offset="0.8526" style="stop-color:#6F269A"/>
			<stop  offset="1" style="stop-color:#762097"/>
		</linearGradient>
		<path class="st3" d="M260.9,296.1c1.5,2,3.8,5.5,4,6.8c0.5,3.5,5.4,4.1,6,4.2l0.4,0l0.4-0.1c0.3-0.1,1.4-0.5,8.6-8.3l0.5-0.6
			l-0.1-0.8c-0.1-0.5-2-12.1-3.4-18c-1.5-6.1-5.4-14.5-7-17.6c-1.5-2.8-2.4-7.3-2.4-7.4l-6.4-29.2l-3.2,40.9l0,0.1l2.4,29.5
			L260.9,296.1z"/>
		<linearGradient id="SVGID_6_" gradientUnits="userSpaceOnUse" x1="86.6059" y1="99.7004" x2="355.1584" y2="368.2529">
			<stop  offset="0" style="stop-color:#0081C6"/>
			<stop  offset="5.124450e-02" style="stop-color:#0979C2"/>
			<stop  offset="0.3579" style="stop-color:#3853B0"/>
			<stop  offset="0.6293" style="stop-color:#5A37A2"/>
			<stop  offset="0.8526" style="stop-color:#6F269A"/>
			<stop  offset="1" style="stop-color:#762097"/>
		</linearGradient>
		<path class="st4" d="M185.6,262.8c0.9,3.6,0.5,24.5,0.2,29.5c-0.3,3.5,1.2,9.6,2.1,13.7c0.3,1.2,0.5,2.1,0.6,2.7
			c0.4,2.4,3.5,2.4,4.5,2.4c1.7,0,3.8-0.2,6.3-0.5c2.6-0.3,5.6-0.6,8.6-0.8c7.6-0.3,9.2-1,11-2.1c0.2-0.1,0.5-0.3,0.8-0.4
			c1.4-0.7,2.8-2,4.2-3.2c0.9-0.8,1.8-1.6,2.6-2.1c0.3-0.2,1-0.5,3.1-0.5c1.4,0,3,0.1,4.5,0.3c1.2,0.1,2.4,0.2,3.3,0.2
			c3.6,0.1,8,0.5,8.1,0.5l0.4,0l0.4-0.1c1.1-0.4,4.2-1.6,5.5-1.9c2.8-0.7,2.7-3,2.7-3.8l0-0.3c0-1.1-0.6-1.7-1.1-2.2
			c-0.1-0.1-0.2-0.2-0.4-0.4c0.3-0.1,0.6-0.3,0.8-0.5c1.3-1.3,0.6-3.6-0.4-5.4c-0.3-2.7-0.7-6.7-0.8-7.1c0-0.2,0-0.7-1.1-12.1
			c-0.5-5.4-1.1-11.4-1.1-11.8c0-0.5-2.1-10.7-2.5-12.5l0,0c-0.1-0.4-0.2-2.7-0.4-4.9c-0.3-4.5-0.8-10.7-1.2-13.2
			c-0.8-4.7-1.7-10.6-1.6-12.7c0.1-1.7,0.8-3.5,1.2-4.4c0.2-0.4,0.2-0.6,0.3-0.8c0.2-1,0.1-2.8-1.2-4.8c-0.9-1.5-1.8-5.5-1.9-7.8
			c0-1.2,0.3-2.1,0.7-3c0.3-0.6,0.5-1.3,0.6-2c0.1-1-0.1-5-0.6-12.5c-0.1-1.1-0.1-2.1-0.2-2.7c0.8-0.5,1.9-1.4,2.1-3.6
			c0.3-3.3-1.5-4.9-1.6-5l-10.4-9.8l-9.3-13.8l-9.6-20.4l-4.3-7.5l-4.1,22c-0.4,2.3-9.4,8.7-17.4,13.3l-0.8,0.5l0,0.9
			c0,0.4-0.3,10,0.3,13.6c0.5,3.1,0.2,6.5-0.5,13.9l-0.1,1.1c-0.8,7.7-2.9,11.1-2.9,11.1l-0.2,0.3c-0.1,0.1-1.3,3.4-1.4,7.9
			c0,2.1,0.4,3.8,1,5.7c0.7,2.3,1.4,4.9,1.4,9.2c0,4.7-0.7,6-1.3,7.3c-0.4,0.8-0.9,1.7-1.1,3.2c-0.3,2.1-0.4,8.6-0.4,16.8
			c0,3.7,0,7.3-0.1,8.1c-0.2,1.8,0.7,4.6,1.7,7.9C184.8,259.9,185.2,261.5,185.6,262.8z M201.2,163.6c-0.1-0.5-0.2-2.2-0.2-4.8
			c5-3.2,9-6.1,11.9-8.8c0.1,0.2,0.3,0.4,0.4,0.7l9.5,14c0.5,0.7,1,1.3,1.6,1.9l6.2,5.8c-0.2,1-0.3,1.9-0.3,2.5c0,0.6,0,1.2,0.2,4.2
			l0,0.2c0.2,2.3,0.5,6.9,0.6,9.3c-0.7,1.7-1.5,4.3-1.3,7.7c0.1,2.3,0.7,7.3,2.5,11.5c-0.5,1.8-0.8,3.6-0.9,5.2
			c-0.2,3.9,1.1,11.4,1.8,15.6c0.3,1.8,0.8,8.6,1.1,11.9c0.4,5,0.5,6.3,0.9,7.6c0.4,1.8,1.8,8.7,2.1,10.2c0.1,1.2,0.3,3.6,0.9,9.6
			l0.2,2.1c0.5,4.8,1,10.8,1.1,11.6c0,0.6,0.1,1.7,0.6,5.5c-0.3,0.5-0.5,1.1-0.8,1.9c-0.5,0-1,0-1.6-0.1c-0.7,0-1.6-0.1-2.6-0.2
			c-1.7-0.1-3.7-0.3-5.6-0.3c-2.8,0-7,0.3-10.7,2.9c-1.4,1-2.7,2.1-3.7,3c-0.4,0.4-1.3,1.1-1.6,1.4c-0.4,0.2-0.8,0.4-1,0.6
			c-0.6,0.1-2.1,0.3-5.2,0.4c-2.9,0.1-5.6,0.4-7.9,0.6c-0.6-2.9-0.6-3.9-0.6-4.2c0-0.2,1.2-26.5-0.5-33.6c-0.4-1.7-1-3.4-1.5-5.1
			c-0.3-1.1-0.9-3-1.1-3.9c0.1-1.4,0.1-3.6,0.1-8.2c0-4.1,0.1-11.7,0.2-14.4c1.6-3.2,2.6-6.6,2.6-13c0-6.1-1.1-10.1-1.9-12.8
			c-0.2-0.7-0.4-1.5-0.5-1.8c0-1.3,0.3-2.4,0.4-3.1c1.4-2.8,3.3-7.7,4-15.3l0.1-1.1C201.7,172.7,202.1,168.5,201.2,163.6z"/>
	</g>
</g>
<linearGradient id="SVGID_7_" gradientUnits="userSpaceOnUse" x1="11.3686" y1="200" x2="388.6313" y2="200">
	<stop  offset="0" style="stop-color:#0081C6"/>
	<stop  offset="5.124450e-02" style="stop-color:#0979C2"/>
	<stop  offset="0.3579" style="stop-color:#3853B0"/>
	<stop  offset="0.6293" style="stop-color:#5A37A2"/>
	<stop  offset="0.8526" style="stop-color:#6F269A"/>
	<stop  offset="1" style="stop-color:#762097"/>
</linearGradient>
<circle class="st5" cx="200" cy="200" r="178"/>
</svg>
