<?xml version="1.0" encoding="utf-8"?>
<!-- Generator: Adobe Illustrator 22.1.0, SVG Export Plug-In . SVG Version: 6.00 Build 0)  -->
<svg version="1.1" id="Capa_1" xmlns="http://www.w3.org/2000/svg" xmlns:xlink="http://www.w3.org/1999/xlink" x="0px" y="0px"
	 viewBox="0 0 400 400" style="enable-background:new 0 0 400 400;" xml:space="preserve">
<style type="text/css">
	.st0{fill:url(#SVGID_1_);}
	.st1{fill:none;stroke:url(#SVGID_2_);stroke-width:21.2627;stroke-miterlimit:10;}
</style>
<linearGradient id="SVGID_1_" gradientUnits="userSpaceOnUse" x1="55.5994" y1="200" x2="314.4006" y2="200">
	<stop  offset="0" style="stop-color:#0081C6"/>
	<stop  offset="5.124450e-02" style="stop-color:#0979C2"/>
	<stop  offset="0.3579" style="stop-color:#3853B0"/>
	<stop  offset="0.6293" style="stop-color:#5A37A2"/>
	<stop  offset="0.8526" style="stop-color:#6F269A"/>
	<stop  offset="1" style="stop-color:#762097"/>
</linearGradient>
<path class="st0" d="M314.4,164c0-27.2-12.5-52.8-34.3-70.6v-7.8c0-7.4-6-13.4-13.4-13.4h-105c-7.4,0-13.4,6-13.4,13.4v7.8
	c-21.8,17.8-34.3,43.4-34.3,70.6c0,19.1,6.4,38.1,18.1,53.8c-3.3,4.5-6.1,9.3-8.4,14.2c-4.2-1.2-7.6-4.1-10.2-8.7
	c-6.6-11.8-15.6-27-22-37.6c-3-5-8.3-7.9-14.1-7.9c-3.4,0-6.6,1-9.4,2.9l-8,5.6c-3.2,2.3-5,5.9-4.6,9.9c0.3,3.9,2.7,7.2,6.2,8.8
	c4.1,1.9,9.6,5.5,12.6,11.9c1,2.2,2.4,6.3,3.9,11l0.2,0.5c7.3,22.1,20.9,63,52.6,72.3c4.4,6.3,9.9,12,16.2,17
	c8.2,6.6,18.5,10.2,29.1,10.2h75.7c10.6,0,20.9-3.6,29.1-10.2c19-15.2,29.4-35.7,29.4-57.7c0-14.9-5-29.5-14.4-42.1
	C308,202.1,314.4,183.1,314.4,164z M121.1,280.5c-16.3-13.9-25.3-40.9-30.4-56.3c-1.7-5.3-3.2-9.7-4.6-12.8
	c-3.9-8.3-10.2-13.4-15.7-16.5l5.3-3.7c0.6-0.4,1.2-0.6,2-0.6c1.3,0,2.6,0.7,3.2,1.7c5.2,8.5,14.9,24.7,21.7,37.2
	c4.9,8.8,11.6,12.8,17.2,14.6c-1.3,5.2-1.9,10.5-1.9,15.8C117.9,266.9,118.9,273.8,121.1,280.5z M252.1,315h-75.7
	c-7.7,0-15.2-2.6-21.1-7.4c-9.4-7.5-16.2-16.4-20.3-26.4l0-0.1c-2.8-6.9-4.3-14-4.3-21.2c0-22.1,13.5-42.7,36.1-55.4
	c0.4,0,0.8,0.1,1.2,0.1h91.6c0.6,0,1.3-0.1,1.9-0.2c22.7,12.6,36.3,33.3,36.3,55.5c0,18-8.7,35-24.6,47.7
	C267.3,312.4,259.8,315,252.1,315z M271,195.1c0.1-0.7,0.2-1.3,0.2-2v-8.9c0-6.4-5.2-11.5-11.5-11.5h-29c1.6-2.9,2.5-6.1,2.5-9.5
	c0-10.7-8.7-19.4-19.4-19.4c-10.7,0-19.4,8.7-19.4,19.4c0,3.4,0.9,6.6,2.5,9.5h-29c-6.4,0-11.5,5.2-11.5,11.5v8.9
	c0,0.9,0.1,1.7,0.3,2.5c-5.5,3.4-10.6,7.3-15.1,11.6c-9-13-13.8-27.8-13.8-43.2c0-22.4,9.7-43.1,27.2-58.3c2,1.2,4.3,1.8,6.6,1.8
	h105c2.3,0,4.6-0.6,6.6-1.8c17.6,15.2,27.2,35.8,27.2,58.3c0,15.4-4.7,30.3-13.7,43.2C282.1,202.7,276.8,198.6,271,195.1z"/>
<linearGradient id="SVGID_2_" gradientUnits="userSpaceOnUse" x1="11.3686" y1="200" x2="388.6313" y2="200">
	<stop  offset="0" style="stop-color:#0081C6"/>
	<stop  offset="5.124450e-02" style="stop-color:#0979C2"/>
	<stop  offset="0.3579" style="stop-color:#3853B0"/>
	<stop  offset="0.6293" style="stop-color:#5A37A2"/>
	<stop  offset="0.8526" style="stop-color:#6F269A"/>
	<stop  offset="1" style="stop-color:#762097"/>
</linearGradient>
<circle class="st1" cx="200" cy="200" r="178"/>
</svg>
